<svg xmlns="http://www.w3.org/2000/svg" xmlns:xlink="http://www.w3.org/1999/xlink" xmlns:inkscape="http://www.inkscape.org/namespaces/inkscape" version="1.1" width="204" height="170" viewBox="0 0 204 170">
<defs>
<path id="font_1_1" d="M.6589966 .23046875C.6759949 .23046875 .69400027 .23046875 .69400027 .25045777 .69400027 .27046205 .6759949 .27046205 .6589966 .27046205H.117996219C.100997928 .27046205 .08299255 .27046205 .08299255 .25045777 .08299255 .23046875 .100997928 .23046875 .117996219 .23046875H.6589966Z"/>
<path id="font_2_2" d="M.1269989 .07699585 .23298645 .18003845C.3889923 .31811524 .44898988 .3721466 .44898988 .47216798 .44898988 .5860901 .35899354 .6660156 .23699951 .6660156 .12399292 .6660156 .049987794 .57411196 .049987794 .48516847 .049987794 .4291687 .099990848 .4291687 .102996829 .4291687 .11999512 .4291687 .15499878 .44117738 .15499878 .48217774 .15499878 .5081787 .13699341 .5341797 .101989749 .5341797 .09399414 .5341797 .09199524 .5341797 .08898926 .5331726 .11199951 .59806826 .1659851 .63500979 .22399903 .63500979 .31498719 .63500979 .35798646 .5541382 .35798646 .47216798 .35798646 .39215089 .30799867 .31311036 .25299073 .25108338L.06098938 .036987306C.049987794 .025985718 .049987794 .023986817 .049987794 0H.42099L.44898988 .17404175H.42399598C.4189911 .14402771 .4119873 .1000061 .4019928 .084991458 .394989 .07699585 .32899476 .07699585 .30699159 .07699585H.1269989Z"/>
<path id="font_2_1" d="M.2939911 .64004519C.2939911 .66400149 .2939911 .6660156 .2709961 .6660156 .20899964 .60227969 .12098694 .60227969 .08898926 .60227969V.57128909C.10899353 .57128909 .16799927 .57128909 .21998596 .5972748V.07902527C.21998596 .042999269 .21699524 .0309906 .1269989 .0309906H.09498596V0C.12998963 .0029907227 .21699524 .0029907227 .25698854 .0029907227 .29699708 .0029907227 .38398744 .0029907227 .4189911 0V.0309906H.3869934C.29699708 .0309906 .2939911 .041992189 .2939911 .07902527V.64004519Z"/>
<clipPath id="clip_3">
<path transform="matrix(1.00002,0,0,-1.00006,6.581848,166.5352)" d="M0 0H194.26912V161.39636H0Z"/>
</clipPath>
<path id="font_4_1" d="M.33399964 .30233766C.33999635 .32835389 .36299134 .42037965 .43299867 .42037965 .43798829 .42037965 .46199037 .42037965 .48298646 .40734864 .45498658 .402359 .43499757 .37734986 .43499757 .35334779 .43499757 .33735658 .44599916 .31835938 .47299195 .31835938 .49499513 .31835938 .5269928 .3363495 .5269928 .37635804 .5269928 .42837525 .46798707 .4423828 .43399049 .4423828 .37599183 .4423828 .34098817 .38935853 .32899476 .36634828 .3039856 .43237306 .25 .4423828 .22099304 .4423828 .116989139 .4423828 .05999756 .3133545 .05999756 .28834535 .05999756 .27833558 .069992069 .27833558 .07199097 .27833558 .07998657 .27833558 .08299255 .28033448 .084991458 .28933717 .11898804 .39535523 .18499756 .42037965 .21899414 .42037965 .23799134 .42037965 .272995 .4113617 .272995 .35334779 .272995 .32235719 .2559967 .25532533 .21899414 .11528015 .20298767 .053268434 .16799927 .011245728 .12399292 .011245728 .117996219 .011245728 .09498596 .011245728 .07398987 .024276734 .09899902 .029266358 .12098694 .05027771 .12098694 .07827759 .12098694 .105270389 .09899902 .11328125 .083999637 .11328125 .053985597 .11328125 .0289917 .08728027 .0289917 .055267335 .0289917 .009246826 .07899475-.0107421879 .12298584-.0107421879 .18899536-.0107421879 .22499085 .059280397 .22799683 .0652771 .23999024 .028274537 .27598573-.0107421879 .33599855-.0107421879 .43899537-.0107421879 .49598695 .118270877 .49598695 .14328003 .49598695 .1532898 .4869995 .1532898 .48399354 .1532898 .47499085 .1532898 .47299195 .14929199 .47099305 .14228821 .43798829 .03527832 .36999513 .011245728 .33799745 .011245728 .29899598 .011245728 .2829895 .043273927 .2829895 .07727051 .2829895 .09927368 .2889862 .121276859 .2999878 .16529846L.33399964 .30233766Z"/>
<path id="font_4_2" d="M.48599244 .38136292C.48999024 .39537049 .48999024 .39736939 .48999024 .40437318 .48999024 .42237855 .47599793 .43138124 .46099855 .43138124 .45098878 .43138124 .43499757 .42536927 .42599488 .41036988 .42399598 .405365 .41600038 .37435914 .4119873 .35635377 .40499879 .33035279 .397995 .30334474 .3919983 .27633668L.34700013 .09628296C.34298707 .08126831 .2999878 .011245728 .23399353 .011245728 .18299866 .011245728 .17199707 .055267335 .17199707 .0922699 .17199707 .1382904 .18899536 .20030213 .22299195 .28833009 .23899842 .3293457 .24299622 .3403473 .24299622 .36035157 .24299622 .405365 .21099854 .4423828 .16099549 .4423828 .06599426 .4423828 .0289917 .29733277 .0289917 .28833009 .0289917 .27833558 .038986207 .27833558 .040985109 .27833558 .050994874 .27833558 .051986696 .28033448 .056991579 .29634095 .083999637 .3903656 .12399292 .42037965 .1579895 .42037965 .1659851 .42037965 .18299866 .42037965 .18299866 .3883667 .18299866 .36335755 .17298889 .3373413 .1659851 .31834413 .12599182 .21231079 .10798645 .1552887 .10798645 .10827637 .10798645 .019256592 .17098999-.0107421879 .22999573-.0107421879 .2689972-.0107421879 .30299378 .0062561037 .33099366 .03425598 .31799317-.017745972 .30599977-.06674194 .2659912-.11973572 .23999024-.15385437 .20199585-.18309021 .1559906-.18309021 .14199829-.18309021 .09700012-.18005371 .07998657-.14074707 .09599304-.14074707 .10899353-.14074707 .12298584-.1287384 .1329956-.11973572 .14299011-.10673523 .14299011-.08773804 .14299011-.056747438 .115997318-.052734376 .10598755-.052734376 .08299255-.052734376 .049987794-.068740848 .049987794-.11773682 .049987794-.16796875 .09399414-.20507813 .1559906-.20507813 .25898744-.20507813 .3619995-.11373901 .3899994-.00074768069L.48599244 .38136292Z"/>
</defs>
<path transform="matrix(1.00002,0,0,-1.00006,6.581848,166.5352)" stroke-width=".19925" stroke-linecap="butt" stroke-miterlimit="10" stroke-linejoin="miter" fill="none" stroke="#7f807f" d="M0 78.57219V82.82414M48.56728 78.57219V82.82414M145.70183 78.57219V82.82414M194.26912 78.57219V82.82414"/>
<path transform="matrix(1.00002,0,0,-1.00006,6.581848,166.5352)" stroke-width=".19925" stroke-linecap="butt" stroke-miterlimit="10" stroke-linejoin="miter" fill="none" stroke="#7f807f" d="M95.00867 0H99.26042M95.00867 40.34909H99.26042M95.00867 121.04727H99.26042M95.00867 161.39636H99.26042"/>
<path transform="matrix(1.00002,0,0,-1.00006,6.581848,166.5352)" stroke-width=".3985" stroke-linecap="butt" stroke-miterlimit="10" stroke-linejoin="miter" fill="none" stroke="#000000" d="M0 80.69818H192.2766"/>
<path transform="matrix(1.00002,0,0,-1.00006,198.86229,85.832187)" d="M1.99252 0-1.19551 1.59401 0 0-1.19551-1.59401"/>
<path transform="matrix(1.00002,0,0,-1.00006,6.581848,166.5352)" stroke-width=".3985" stroke-linecap="butt" stroke-miterlimit="10" stroke-linejoin="miter" fill="none" stroke="#000000" d="M97.13455 0V159.40384"/>
<path transform="matrix(0,-1.00006,-1.00002,-0,103.718349,7.121811)" d="M1.99252 0-1.19551 1.59401 0 0-1.19551-1.59401"/>
<use data-text="&#x2212;" xlink:href="#font_1_1" transform="matrix(9.962799,0,0,-9.963197,.21672058,97.899089)"/>
<use data-text="2" xlink:href="#font_2_2" transform="matrix(9.962799,0,0,-9.963197,7.9658815,97.899089)"/>
<use data-text="&#x2212;" xlink:href="#font_1_1" transform="matrix(9.962799,0,0,-9.963197,48.784696,97.899089)"/>
<use data-text="1" xlink:href="#font_2_1" transform="matrix(9.962799,0,0,-9.963197,56.533857,97.899089)"/>
<use data-text="1" xlink:href="#font_2_1" transform="matrix(9.962799,0,0,-9.963197,149.79572,97.899089)"/>
<use data-text="2" xlink:href="#font_2_2" transform="matrix(9.962799,0,0,-9.963197,198.3637,97.899089)"/>
<use data-text="&#x2212;" xlink:href="#font_1_1" transform="matrix(9.962799,0,0,-9.963197,85.34243,169.33037)"/>
<use data-text="2" xlink:href="#font_2_2" transform="matrix(9.962799,0,0,-9.963197,93.09159,169.33037)"/>
<use data-text="&#x2212;" xlink:href="#font_1_1" transform="matrix(9.962799,0,0,-9.963197,85.34243,128.97895)"/>
<use data-text="1" xlink:href="#font_2_1" transform="matrix(9.962799,0,0,-9.963197,93.09159,128.97895)"/>
<use data-text="1" xlink:href="#font_2_1" transform="matrix(9.962799,0,0,-9.963197,93.09058,48.69114)"/>
<use data-text="2" xlink:href="#font_2_2" transform="matrix(9.962799,0,0,-9.963197,93.09058,8.339706)"/>
<g clip-path="url(#clip_3)">
<path transform="matrix(1.00002,0,0,-1.00006,6.581848,166.5352)" stroke-width=".79701" stroke-linecap="butt" stroke-miterlimit="10" stroke-linejoin="miter" fill="none" stroke="#ff0000" d="M9.71346 8.39262 11.33234 15.083 12.95123 21.3878 14.57011 27.31604 16.18901 32.87668 17.80789 38.07896 19.4268 42.93121 21.04568 47.4428 22.66458 51.62263 24.28346 55.47966 25.90236 59.02287 27.52126 62.26125 29.14015 65.20372 30.75903 67.85928 32.37793 70.2369 33.99681 72.34567 35.61572 74.19426 37.2346 75.7918 38.8535 77.14723 40.47238 78.26955 42.09128 79.16772 43.71017 79.8507 45.32907 80.32745 46.94795 80.60695 48.56685 80.69815 50.18573 80.61003 51.80464 80.35155 53.42352 79.93167 55.04242 79.35936 56.6613 78.6436 58.2802 77.79332 59.8991 76.81752 61.51799 75.72516 63.13689 74.52519 64.75578 73.2266 66.37468 71.83833 67.99356 70.36937 69.61246 68.82867 71.23134 67.2252 72.85025 65.56795 74.46913 63.86584 76.08803 62.12788 77.70692 60.363 79.32582 58.5802 80.9447 56.7884 82.5636 54.99663 84.18248 53.21382 85.80139 51.44893 87.42027 49.71094 89.03917 48.0088 90.65805 46.35147 92.27695 44.74796 93.89584 43.20721 95.51474 41.73817 97.13364 40.34982 98.75253 39.05115 100.37141 37.85109 101.99031 36.75862 103.60919 35.78271 105.2281 34.93231 106.84698 34.21642 108.46588 33.64398 110.08478 33.22395 111.70367 32.96532 113.32256 32.87703 114.94145 32.96806 116.56033 33.24739 118.17924 33.72394 119.79814 34.40674 121.41702 35.30473 123.03593 36.42685 124.65482 37.78209 126.27371 39.37941 127.8926 41.22778 129.51149 43.33618 131.13039 45.71355 132.74929 48.36885 134.36817 51.31111 135.98706 54.54921 137.60596 58.09218 139.22486 61.94896 140.84374 66.12851 142.46263 70.6398 144.08153 75.4918 145.70043 80.69348 147.3193 86.25378 148.9382 92.18166 150.55709 98.4862 152.176 105.1761 153.79488 112.26108 155.41378 119.74902 157.03266 127.64948 158.65155 135.9713 160.27045 144.72359 161.88935 153.91516 163.50823 163.555 165.12712 173.65206 166.746 184.21546 168.36492 195.25399 169.9838 206.77725"/>
</g>
<path transform="matrix(1.00002,0,0,-1.00006,6.581848,166.5352)" d="M50.55983 80.69818C50.55983 81.79865 49.66774 82.69073 48.56728 82.69073 47.4668 82.69073 46.57472 81.79865 46.57472 80.69818 46.57472 79.5977 47.4668 78.70563 48.56728 78.70563 49.66774 78.70563 50.55983 79.5977 50.55983 80.69818ZM48.56728 80.69818" fill="#ff0000"/>
<path transform="matrix(1.00002,0,0,-1.00006,6.581848,166.5352)" stroke-width=".3985" stroke-linecap="butt" stroke-miterlimit="10" stroke-linejoin="miter" fill="none" stroke="#ff0000" d="M50.55983 80.69818C50.55983 81.79865 49.66774 82.69073 48.56728 82.69073 47.4668 82.69073 46.57472 81.79865 46.57472 80.69818 46.57472 79.5977 47.4668 78.70563 48.56728 78.70563 49.66774 78.70563 50.55983 79.5977 50.55983 80.69818ZM48.56728 80.69818"/>
<path transform="matrix(1.00002,0,0,-1.00006,6.581848,166.5352)" d="M115.3 32.8845C115.3 33.98497 114.40793 34.87706 113.30745 34.87706 112.20699 34.87706 111.3149 33.98497 111.3149 32.8845 111.3149 31.78403 112.20699 30.89195 113.30745 30.89195 114.40793 30.89195 115.3 31.78403 115.3 32.8845ZM113.30745 32.8845" fill="#ff0000"/>
<path transform="matrix(1.00002,0,0,-1.00006,6.581848,166.5352)" stroke-width=".3985" stroke-linecap="butt" stroke-miterlimit="10" stroke-linejoin="miter" fill="none" stroke="#ff0000" d="M115.3 32.8845C115.3 33.98497 114.40793 34.87706 113.30745 34.87706 112.20699 34.87706 111.3149 33.98497 111.3149 32.8845 111.3149 31.78403 112.20699 30.89195 113.30745 30.89195 114.40793 30.89195 115.3 31.78403 115.3 32.8845ZM113.30745 32.8845"/>
<path transform="matrix(1.00002,0,0,-1.00006,6.581848,166.5352)" stroke-width=".3985" stroke-linecap="butt" stroke-miterlimit="10" stroke-linejoin="miter" fill="none" stroke="#ff0000" d=""/>
<use data-text="x" xlink:href="#font_4_1" transform="matrix(9.962799,0,0,-9.963197,191.67256,82.29915)"/>
<use data-text="y" xlink:href="#font_4_2" transform="matrix(9.962799,0,0,-9.963197,107.25686,12.915985)"/>
</svg>
