<svg xmlns="http://www.w3.org/2000/svg" xmlns:xlink="http://www.w3.org/1999/xlink" xmlns:inkscape="http://www.inkscape.org/namespaces/inkscape" version="1.1" width="199" height="168" viewBox="0 0 199 168">
<defs>
<path id="font_1_1" d="M.6589966 .23046875C.6759949 .23046875 .69400027 .23046875 .69400027 .25045777 .69400027 .27046205 .6759949 .27046205 .6589966 .27046205H.117996219C.100997928 .27046205 .08299255 .27046205 .08299255 .25045777 .08299255 .23046875 .100997928 .23046875 .117996219 .23046875H.6589966Z"/>
<path id="font_2_2" d="M.1269989 .07699585 .23298645 .18003845C.3889923 .31811524 .44898988 .3721466 .44898988 .47216798 .44898988 .5860901 .35899354 .6660156 .23699951 .6660156 .12399292 .6660156 .049987794 .57411196 .049987794 .48516847 .049987794 .4291687 .099990848 .4291687 .102996829 .4291687 .11999512 .4291687 .15499878 .44117738 .15499878 .48217774 .15499878 .5081787 .13699341 .5341797 .101989749 .5341797 .09399414 .5341797 .09199524 .5341797 .08898926 .5331726 .11199951 .59806826 .1659851 .63500979 .22399903 .63500979 .31498719 .63500979 .35798646 .5541382 .35798646 .47216798 .35798646 .39215089 .30799867 .31311036 .25299073 .25108338L.06098938 .036987306C.049987794 .025985718 .049987794 .023986817 .049987794 0H.42099L.44898988 .17404175H.42399598C.4189911 .14402771 .4119873 .1000061 .4019928 .084991458 .394989 .07699585 .32899476 .07699585 .30699159 .07699585H.1269989Z"/>
<path id="font_2_1" d="M.2939911 .64004519C.2939911 .66400149 .2939911 .6660156 .2709961 .6660156 .20899964 .60227969 .12098694 .60227969 .08898926 .60227969V.57128909C.10899353 .57128909 .16799927 .57128909 .21998596 .5972748V.07902527C.21998596 .042999269 .21699524 .0309906 .1269989 .0309906H.09498596V0C.12998963 .0029907227 .21699524 .0029907227 .25698854 .0029907227 .29699708 .0029907227 .38398744 .0029907227 .4189911 0V.0309906H.3869934C.29699708 .0309906 .2939911 .041992189 .2939911 .07902527V.64004519Z"/>
<path id="font_2_3" d="M.2899933 .35191346C.37199403 .37893678 .42999269 .4490509 .42999269 .52809146 .42999269 .6100464 .34199525 .6660156 .24598694 .6660156 .14498902 .6660156 .068984989 .60606387 .068984989 .53009036 .068984989 .49710084 .09098816 .47808839 .11999512 .47808839 .15098572 .47808839 .17098999 .50009158 .17098999 .5290985 .17098999 .57910159 .12399292 .57910159 .10899353 .57910159 .13999939 .62802127 .20599365 .64100649 .24198914 .64100649 .2829895 .64100649 .33799745 .6190338 .33799745 .5290985 .33799745 .51708987 .33599855 .45906068 .30999757 .4149933 .27999879 .36691285 .24598694 .36390687 .22099304 .36291505 .21299744 .36190797 .18899536 .35990907 .18199158 .35990907 .17399597 .35890199 .16699219 .35791017 .16699219 .3479004 .16699219 .33691407 .17399597 .33691407 .19099427 .33691407H.23498535C.31698609 .33691407 .35398866 .2686615 .35398866 .17037964 .35398866 .034469606 .2849884 .0055389406 .24099732 .0055389406 .19799805 .0055389406 .12298584 .022491456 .08799744 .08137512 .12298584 .07637024 .1539917 .09837341 .1539917 .1363678 .1539917 .17237854 .1269989 .19238281 .09799194 .19238281 .07398987 .19238281 .041992189 .17837525 .041992189 .1343689 .041992189 .043441774 .1349945-.022460938 .24398804-.022460938 .3659973-.022460938 .45700074 .06838989 .45700074 .17037964 .45700074 .252594 .3939972 .33088685 .2899933 .35191346Z"/>
<path id="font_2_4" d="M.2939911 .16503906V.07800293C.2939911 .041992189 .2919922 .0309906 .21798706 .0309906H.19699097V0C.23799134 .0029907227 .2899933 .0029907227 .33198548 .0029907227 .37399293 .0029907227 .4269867 .0029907227 .46798707 0V.0309906H.44699098C.37298585 .0309906 .37098695 .041992189 .37098695 .07800293V.16503906H.47099305V.19602967H.37098695V.65075686C.37098695 .67074587 .37098695 .6767578 .35499574 .6767578 .34599305 .6767578 .34298707 .6767578 .33499146 .66474917L.027999878 .19602967V.16503906H.2939911M.2999878 .19602967H.055999757L.2999878 .5688019V.19602967Z"/>
<clipPath id="clip_3">
<path transform="matrix(1.00006,0,0,-1.00006,1.0959854,166.5262)" d="M0 0H194.26988V161.38724H0Z"/>
</clipPath>
<path id="font_4_85" d="M.34098817-.23803711C.34098817-.23303223 .33799745-.23002625 .33198548-.22303772 .20298767-.105026248 .1639862 .07498169 .1639862 .24998474 .1639862 .40498353 .19400025 .59298709 .33499146 .72698977 .33898927 .73098757 .34098817 .7339783 .34098817 .73898318 .34098817 .74598696 .33599855 .75 .32899476 .75 .31698609 .75 .22698975 .6779785 .17298889 .568985 .125 .47297669 .100997928 .36997987 .100997928 .25097657 .100997928 .17897034 .10998535 .064971927 .16499329-.053024293 .22399903-.17602539 .31698609-.24902344 .32899476-.24902344 .33599855-.24902344 .34098817-.24502564 .34098817-.23803711Z"/>
<path id="font_4_64" d="M.2849884 .1850586V.24707031H.010986328V.1850586H.2849884Z"/>
<path id="font_4_82" d="M.43199159 0V.0309906H.3999939C.30699159 .0309906 .3039856 .042999269 .3039856 .08001709V.63912966C.3039856 .6640167 .30299378 .6660156 .27799989 .6660156 .21598816 .60227969 .12399292 .60227969 .09298706 .60227969V.57128909C.11199951 .57128909 .17298889 .57128909 .22698975 .5972748V.08001709C.22698975 .042999269 .22399903 .0309906 .1309967 .0309906H.09899902V0C.1349945 .0029907227 .22399903 .0029907227 .2649994 .0029907227 .30599977 .0029907227 .3959961 .0029907227 .43199159 0Z"/>
<path id="font_4_45" d="M.20698548 .0019989014C.20698548 .070999149 .18099976 .10798645 .14199829 .10798645 .10699463 .10798645 .08799744 .08099365 .08799744 .053985597 .08799744 .026992798 .10699463 0 .14199829 0 .16699219 0 .18199158 .015991211 .18199158 .015991211 .18199158-.017044068 .18199158-.09919739 .10598755-.17132569 .101989749-.17633057 .101989749-.18135071 .101989749-.18135071 .101989749-.18635559 .10798645-.19335938 .114990238-.19335938 .12599182-.19335938 .20698548-.1162262 .20698548 .0019989014Z"/>
<path id="font_4_86" d="M.2979889 .25097657C.2979889 .3329773 .28599549 .4429779 .23399353 .5539856 .1749878 .6769867 .08198547 .75 .069992069 .75 .05999756 .75 .057998659 .74198916 .057998659 .73898318 .057998659 .7339783 .05999756 .73098757 .066986087 .72398379 .125 .6719818 .23498535 .5359802 .23498535 .25097657 .23498535 .10797119 .20899964-.091033939 .06399536-.22602844 .06199646-.22903443 .057998659-.23303223 .057998659-.23803711 .057998659-.24102783 .05999756-.24902344 .069992069-.24902344 .08198547-.24902344 .17199707-.17703247 .22599793-.06802368 .27398683 .02796936 .2979889 .13098145 .2979889 .25097657Z"/>
<path id="font_4_107" d="M.46199037 .17704773H.43399049C.43199159 .16404724 .42399598 .10501099 .41099549 .08900452 .40499879 .07998657 .33599855 .07998657 .31599427 .07998657H.13798523L.23699951 .17404175C.40098573 .3161316 .46199037 .36915589 .46199037 .4711914 .46199037 .5860901 .36698915 .6660156 .24398804 .6660156 .1289978 .6660156 .050994874 .575119 .050994874 .4841919 .050994874 .43418885 .09399414 .42919923 .102996829 .42919923 .125 .42919923 .15499878 .44519044 .15499878 .48120118 .15499878 .51119998 .13398743 .5332031 .102996829 .5332031 .09799194 .5332031 .09498596 .5332031 .09098816 .53219607 .114990238 .6030731 .1789856 .63500979 .23298645 .63500979 .33499146 .63500979 .36999513 .5401764 .36999513 .4711914 .36999513 .36915589 .29299928 .28611756 .24499512 .23408509L.06199646 .035995485C.050994874 .024993897 .050994874 .022994996 .050994874 0H.43399049L.46199037 .17704773Z"/>
<path id="font_5_1" d="M.33399964 .30233766C.33999635 .32835389 .36299134 .42037965 .43299867 .42037965 .43798829 .42037965 .46199037 .42037965 .48298646 .40734864 .45498658 .402359 .43499757 .37734986 .43499757 .35334779 .43499757 .33735658 .44599916 .31835938 .47299195 .31835938 .49499513 .31835938 .5269928 .3363495 .5269928 .37635804 .5269928 .42837525 .46798707 .4423828 .43399049 .4423828 .37599183 .4423828 .34098817 .38935853 .32899476 .36634828 .3039856 .43237306 .25 .4423828 .22099304 .4423828 .116989139 .4423828 .05999756 .3133545 .05999756 .28834535 .05999756 .27833558 .069992069 .27833558 .07199097 .27833558 .07998657 .27833558 .08299255 .28033448 .084991458 .28933717 .11898804 .39535523 .18499756 .42037965 .21899414 .42037965 .23799134 .42037965 .272995 .4113617 .272995 .35334779 .272995 .32235719 .2559967 .25532533 .21899414 .11528015 .20298767 .053268434 .16799927 .011245728 .12399292 .011245728 .117996219 .011245728 .09498596 .011245728 .07398987 .024276734 .09899902 .029266358 .12098694 .05027771 .12098694 .07827759 .12098694 .105270389 .09899902 .11328125 .083999637 .11328125 .053985597 .11328125 .0289917 .08728027 .0289917 .055267335 .0289917 .009246826 .07899475-.0107421879 .12298584-.0107421879 .18899536-.0107421879 .22499085 .059280397 .22799683 .0652771 .23999024 .028274537 .27598573-.0107421879 .33599855-.0107421879 .43899537-.0107421879 .49598695 .118270877 .49598695 .14328003 .49598695 .1532898 .4869995 .1532898 .48399354 .1532898 .47499085 .1532898 .47299195 .14929199 .47099305 .14228821 .43798829 .03527832 .36999513 .011245728 .33799745 .011245728 .29899598 .011245728 .2829895 .043273927 .2829895 .07727051 .2829895 .09927368 .2889862 .121276859 .2999878 .16529846L.33399964 .30233766Z"/>
<path id="font_5_2" d="M.48599244 .38136292C.48999024 .39537049 .48999024 .39736939 .48999024 .40437318 .48999024 .42237855 .47599793 .43138124 .46099855 .43138124 .45098878 .43138124 .43499757 .42536927 .42599488 .41036988 .42399598 .405365 .41600038 .37435914 .4119873 .35635377 .40499879 .33035279 .397995 .30334474 .3919983 .27633668L.34700013 .09628296C.34298707 .08126831 .2999878 .011245728 .23399353 .011245728 .18299866 .011245728 .17199707 .055267335 .17199707 .0922699 .17199707 .1382904 .18899536 .20030213 .22299195 .28833009 .23899842 .3293457 .24299622 .3403473 .24299622 .36035157 .24299622 .405365 .21099854 .4423828 .16099549 .4423828 .06599426 .4423828 .0289917 .29733277 .0289917 .28833009 .0289917 .27833558 .038986207 .27833558 .040985109 .27833558 .050994874 .27833558 .051986696 .28033448 .056991579 .29634095 .083999637 .3903656 .12399292 .42037965 .1579895 .42037965 .1659851 .42037965 .18299866 .42037965 .18299866 .3883667 .18299866 .36335755 .17298889 .3373413 .1659851 .31834413 .12599182 .21231079 .10798645 .1552887 .10798645 .10827637 .10798645 .019256592 .17098999-.0107421879 .22999573-.0107421879 .2689972-.0107421879 .30299378 .0062561037 .33099366 .03425598 .31799317-.017745972 .30599977-.06674194 .2659912-.11973572 .23999024-.15385437 .20199585-.18309021 .1559906-.18309021 .14199829-.18309021 .09700012-.18005371 .07998657-.14074707 .09599304-.14074707 .10899353-.14074707 .12298584-.1287384 .1329956-.11973572 .14299011-.10673523 .14299011-.08773804 .14299011-.056747438 .115997318-.052734376 .10598755-.052734376 .08299255-.052734376 .049987794-.068740848 .049987794-.11773682 .049987794-.16796875 .09399414-.20507813 .1559906-.20507813 .25898744-.20507813 .3619995-.11373901 .3899994-.00074768069L.48599244 .38136292Z"/>
<path id="font_2_5" d="M.68699648 .32714845C.70199587 .32714845 .72099307 .32714845 .72099307 .34713746 .72099307 .36714173 .70199587 .36714173 .6879883 .36714173H.08898926C.07499695 .36714173 .055999757 .36714173 .055999757 .34713746 .055999757 .32714845 .07499695 .32714845 .08999634 .32714845H.68699648M.6879883 .13284302C.70199587 .13284302 .72099307 .13284302 .72099307 .15284729 .72099307 .17285156 .70199587 .17285156 .68699648 .17285156H.08999634C.07499695 .17285156 .055999757 .17285156 .055999757 .15284729 .055999757 .13284302 .07499695 .13284302 .08898926 .13284302H.6879883Z"/>
<path id="font_6_1" d="M.5049896 .18203736H.47099305C.46798707 .16001892 .45799256 .100997928 .44499208 .09098816 .43699647 .084991458 .3600006 .084991458 .34599305 .084991458H.1619873C.2669983 .17803955 .3019867 .20603943 .3619995 .25306703 .43598939 .312088 .5049896 .374115 .5049896 .46914674 .5049896 .5900879 .39898683 .6640625 .2709961 .6640625 .14698792 .6640625 .06298828 .57710269 .06298828 .4851532 .06298828 .43414308 .10598755 .42915345 .115997318 .42915345 .13999939 .42915345 .16899109 .44615174 .16899109 .48214723 .16899109 .5001526 .1619873 .53515627 .10998535 .53515627 .14099121 .6060791 .20899964 .62805178 .2559967 .62805178 .35598756 .62805178 .4079895 .5501404 .4079895 .46914674 .4079895 .38212586 .34599305 .3130951 .31399537 .27708436L.07299805 .038986207C.06298828 .02999878 .06298828 .027999878 .06298828 0H.47499085L.5049896 .18203736Z"/>
</defs>
<path transform="matrix(1.00006,0,0,-1.00006,1.0959854,166.5262)" stroke-width=".3985" stroke-linecap="butt" stroke-miterlimit="10" stroke-linejoin="miter" fill="none" stroke="#bfbfbf" d="M17.66089 0V161.38724M52.98268 0V161.38724M123.62628 0V161.38724M158.94808 0V161.38724M194.26988 0V161.38724"/>
<path transform="matrix(1.00006,0,0,-1.00006,1.0959854,166.5262)" stroke-width=".3985" stroke-linecap="butt" stroke-miterlimit="10" stroke-linejoin="miter" fill="none" stroke="#bfbfbf" d="M0 23.05531H194.26988M0 115.2766H194.26988M0 161.38724H194.26988"/>
<path transform="matrix(1.00006,0,0,-1.00006,1.0959854,166.5262)" stroke-width=".19925" stroke-linecap="butt" stroke-miterlimit="10" stroke-linejoin="miter" fill="none" stroke="#7f807f" d="M17.66089 67.03998V71.29192M52.98268 67.03998V71.29192M123.62628 67.03998V71.29192M158.94808 67.03998V71.29192M194.26988 67.03998V71.29192"/>
<path transform="matrix(1.00006,0,0,-1.00006,1.0959854,166.5262)" stroke-width=".19925" stroke-linecap="butt" stroke-miterlimit="10" stroke-linejoin="miter" fill="none" stroke="#7f807f" d="M86.17847 23.05531H90.43048M86.17847 115.2766H90.43048M86.17847 161.38724H90.43048"/>
<path transform="matrix(1.00006,0,0,-1.00006,1.0959854,166.5262)" stroke-width=".3985" stroke-linecap="butt" stroke-miterlimit="10" stroke-linejoin="miter" fill="none" stroke="#000000" d="M0 69.16595H192.27735"/>
<path transform="matrix(1.00006,0,0,-1.00006,193.38486,97.3561)" d="M1.99252 0-1.19551 1.59401 0 0-1.19551-1.59401"/>
<path transform="matrix(1.00006,0,0,-1.00006,1.0959854,166.5262)" stroke-width=".3985" stroke-linecap="butt" stroke-miterlimit="10" stroke-linejoin="miter" fill="none" stroke="#000000" d="M88.30449 0V159.39472"/>
<path transform="matrix(0,-1.00006,-1.00006,-0,89.40577,7.121933)" d="M1.99252 0-1.19551 1.59401 0 0-1.19551-1.59401"/>
<use data-text="&#x2212;" xlink:href="#font_1_1" transform="matrix(9.963197,0,0,-9.963197,12.392662,109.422779)"/>
<use data-text="2" xlink:href="#font_2_2" transform="matrix(9.963197,0,0,-9.963197,20.142128,109.422779)"/>
<use data-text="&#x2212;" xlink:href="#font_1_1" transform="matrix(9.963197,0,0,-9.963197,47.71678,109.422779)"/>
<use data-text="1" xlink:href="#font_2_1" transform="matrix(9.963197,0,0,-9.963197,55.466249,109.422779)"/>
<use data-text="1" xlink:href="#font_2_1" transform="matrix(9.963197,0,0,-9.963197,122.23925,109.422779)"/>
<use data-text="2" xlink:href="#font_2_2" transform="matrix(9.963197,0,0,-9.963197,157.56238,109.422779)"/>
<use data-text="3" xlink:href="#font_2_3" transform="matrix(9.963197,0,0,-9.963197,192.8865,109.422779)"/>
<use data-text="&#x2212;" xlink:href="#font_1_1" transform="matrix(9.963197,0,0,-9.963197,71.02818,146.26499)"/>
<use data-text="2" xlink:href="#font_2_2" transform="matrix(9.963197,0,0,-9.963197,78.77765,146.26499)"/>
<use data-text="2" xlink:href="#font_2_2" transform="matrix(9.963197,0,0,-9.963197,78.77764,54.453477)"/>
<use data-text="4" xlink:href="#font_2_4" transform="matrix(9.963197,0,0,-9.963197,78.77764,8.339706)"/>
<g clip-path="url(#clip_3)">
<path transform="matrix(1.00006,0,0,-1.00006,1.0959854,166.5262)" stroke-width=".79701" stroke-linecap="butt" stroke-miterlimit="10" stroke-linejoin="miter" fill="none" stroke="#0000ff" d="M17.66089 115.2766 19.15936 111.40567 20.65785 107.61778 22.15634 103.91286 23.65483 100.29091 25.15332 96.75198 26.65181 93.29614 28.15028 89.92319 29.64877 86.6332 31.14726 83.42621 32.64575 80.30225 34.14424 77.2612 35.64273 74.30319 37.1412 71.42818 38.6397 68.63614 40.13818 65.9271 41.63667 63.30112 43.13516 60.75804 44.63365 58.29797 46.13213 55.92088 47.63062 53.6268 49.1291 51.41563 50.6276 49.28752 52.12608 47.24239 53.62457 45.28029 55.12305 43.40114 56.62154 41.60498 58.12003 39.89182 59.61852 38.26163 61.117 36.71445 62.6155 35.25023 64.11398 33.86903 65.61247 32.5708 67.11096 31.35556 68.60945 30.22331 70.10793 29.17406 71.60641 28.2078 73.1049 27.32451 74.6034 26.52423 76.10188 25.80693 77.60037 25.17262 79.09886 24.62129 80.59735 24.15297 82.09584 23.76764 83.59433 23.46529 85.09282 23.24591 86.5913 23.10954 88.0898 23.05617 89.58827 23.08577 91.08676 23.19836 92.58525 23.39394 94.08374 23.67252 95.58223 24.03407 97.08072 24.47862 98.57921 25.00616 100.0777 25.6167 101.57619 26.31023 103.07468 27.08673 104.57315 27.94623 106.07164 28.8887 107.57013 29.91418 109.06862 31.02266 110.56711 32.21411 112.0656 33.48856 113.56409 34.84598 115.06258 36.28642 116.56107 37.80981 118.05956 39.41623 119.55804 41.1056 121.05652 42.87799 122.55502 44.73337 124.0535 46.67174 125.55199 48.69308 127.05048 50.79744 128.54897 52.98476 130.04746 55.25508 131.54595 57.60832 133.04442 60.04462 134.54291 62.56393 136.0414 65.1662 137.53989 67.85146 139.03838 70.6197 140.53687 73.471 142.03534 76.40521 143.53383 79.42242 145.03232 82.52257 146.5308 85.70575 148.0293 88.97194 149.52779 92.32114 151.02626 95.7533 152.52475 99.26848 154.02324 102.86662 155.52173 106.54779 157.02022 110.3119 158.5187 114.15904 160.01718 118.08913 161.51567 122.1021 163.01416 126.19817 164.51265 130.37728 166.01114 134.63936"/>
<path transform="matrix(1.00006,0,0,-1.00006,1.0959854,166.5262)" stroke-width=".79701" stroke-linecap="butt" stroke-miterlimit="10" stroke-linejoin="miter" fill="none" stroke="#ff0000" d="M35.3218 34.58298 36.74892 35.5145 38.17606 36.44601 39.6032 37.37753 41.03033 38.30907 42.45747 39.24059 43.88461 40.17212 45.31175 41.10364 46.73889 42.03517 48.16603 42.96667 49.59317 43.89821 51.02031 44.82974 52.44743 45.76126 53.87459 46.6928 55.30171 47.62431 56.72885 48.55585 58.15599 49.48735 59.58313 50.41888 61.01027 51.3504 62.43741 52.28194 63.86455 53.21347 65.29169 54.14499 66.71883 55.07652 68.14597 56.00803 69.5731 56.93956 71.00024 57.87108 72.42738 58.80261 73.85452 59.73413 75.28165 60.66566 76.7088 61.5972 78.13593 62.5287 79.56308 63.46024 80.9902 64.39175 82.41736 65.32329 83.84448 66.2548 85.27162 67.18634 86.69876 68.11786 88.1259 69.04938 89.55304 69.98091 90.98018 70.91243 92.40732 71.84396 93.83444 72.77548 95.2616 73.70702 96.68872 74.63853 98.11588 75.57005 99.543 76.50157 100.97015 77.4331 102.39728 78.36464 103.82443 79.29616 105.25156 80.22769 106.67871 81.15921 108.10583 82.09074 109.53299 83.02225 110.96011 83.95378 112.38725 84.8853 113.81439 85.81683 115.24152 86.74837 116.66867 87.67989 118.0958 88.61142 119.52295 89.54292 120.95007 90.47446 122.37723 91.40598 123.80435 92.33751 125.2315 93.26903 126.65863 94.20056 128.08579 95.1321 129.51291 96.0636 130.94005 96.99513 132.36719 97.92665 133.79433 98.85818 135.22147 99.7897 136.6486 100.72124 138.07575 101.65276 139.50289 102.58427 140.93003 103.51581 142.35717 104.44733 143.7843 105.37886 145.21143 106.31038 146.63858 107.24191 148.0657 108.17343 149.49285 109.10495 150.91999 110.03647 152.34712 110.968 153.77426 111.89954 155.2014 112.83105 156.62854 113.76259 158.05568 114.6941 159.48282 115.62563 160.90996 116.55714 162.3371 117.48868 163.76424 118.4202 165.19138 119.35173 166.61852 120.28326 168.04564 121.21478 169.4728 122.1463 170.89992 123.07782 172.32707 124.00935 173.7542 124.94087 175.18135 125.8724 176.60848 126.80392"/>
<use data-text="(" xlink:href="#font_4_85" transform="matrix(8.966938,0,0,-8.966938,25.454445,130.65805)"/>
<use data-text="-" xlink:href="#font_4_64" transform="matrix(8.966938,0,0,-8.966938,29.041222,130.65805)"/>
<use data-text="1" xlink:href="#font_4_82" transform="matrix(8.966938,0,0,-8.966938,32.116884,130.65805)"/>
<use data-text="," xlink:href="#font_4_45" transform="matrix(8.966938,0,0,-8.966938,36.725885,130.65805)"/>
<use data-text="-" xlink:href="#font_4_64" transform="matrix(8.966938,0,0,-8.966938,39.29043,130.65805)"/>
<use data-text="1" xlink:href="#font_4_82" transform="matrix(8.966938,0,0,-8.966938,42.366098,130.65805)"/>
<use data-text=")" xlink:href="#font_4_86" transform="matrix(8.966938,0,0,-8.966938,46.975099,130.65805)"/>
<use data-text="(" xlink:href="#font_4_85" transform="matrix(8.966938,0,0,-8.966938,137.57718,45.489946)"/>
<use data-text="2" xlink:href="#font_4_107" transform="matrix(8.966938,0,0,-8.966938,141.16394,45.489946)"/>
<use data-text="," xlink:href="#font_4_45" transform="matrix(8.966938,0,0,-8.966938,145.77295,45.489946)"/>
<use data-text="2" xlink:href="#font_4_107" transform="matrix(8.966938,0,0,-8.966938,148.3375,45.489946)"/>
<use data-text=")" xlink:href="#font_4_86" transform="matrix(8.966938,0,0,-8.966938,152.9465,45.489946)"/>
</g>
<path transform="matrix(1.00006,0,0,-1.00006,1.0959854,166.5262)" d="M54.97523 46.11063C54.97523 47.2111 54.08316 48.10318 52.98268 48.10318 51.88222 48.10318 50.99013 47.2111 50.99013 46.11063 50.99013 45.01016 51.88222 44.11807 52.98268 44.11807 54.08316 44.11807 54.97523 45.01016 54.97523 46.11063ZM52.98268 46.11063"/>
<path transform="matrix(1.00006,0,0,-1.00006,1.0959854,166.5262)" stroke-width=".3985" stroke-linecap="butt" stroke-miterlimit="10" stroke-linejoin="miter" fill="none" stroke="#000000" d="M54.97523 46.11063C54.97523 47.2111 54.08316 48.10318 52.98268 48.10318 51.88222 48.10318 50.99013 47.2111 50.99013 46.11063 50.99013 45.01016 51.88222 44.11807 52.98268 44.11807 54.08316 44.11807 54.97523 45.01016 54.97523 46.11063ZM52.98268 46.11063"/>
<path transform="matrix(1.00006,0,0,-1.00006,1.0959854,166.5262)" d="M160.94063 115.2766C160.94063 116.37706 160.04856 117.26915 158.94808 117.26915 157.84761 117.26915 156.95552 116.37706 156.95552 115.2766 156.95552 114.17612 157.84761 113.28404 158.94808 113.28404 160.04856 113.28404 160.94063 114.17612 160.94063 115.2766ZM158.94808 115.2766"/>
<path transform="matrix(1.00006,0,0,-1.00006,1.0959854,166.5262)" stroke-width=".3985" stroke-linecap="butt" stroke-miterlimit="10" stroke-linejoin="miter" fill="none" stroke="#000000" d="M160.94063 115.2766C160.94063 116.37706 160.04856 117.26915 158.94808 117.26915 157.84761 117.26915 156.95552 116.37706 156.95552 115.2766 156.95552 114.17612 157.84761 113.28404 158.94808 113.28404 160.04856 113.28404 160.94063 114.17612 160.94063 115.2766ZM158.94808 115.2766"/>
<path transform="matrix(1.00006,0,0,-1.00006,1.0959854,166.5262)" stroke-width=".3985" stroke-linecap="butt" stroke-miterlimit="10" stroke-linejoin="miter" fill="none" stroke="#000000" d=""/>
<use data-text="x" xlink:href="#font_5_1" transform="matrix(9.963197,0,0,-9.963197,186.20307,93.821849)"/>
<use data-text="y" xlink:href="#font_5_2" transform="matrix(9.963197,0,0,-9.963197,92.93849,12.915985)"/>
<path transform="matrix(1.00006,0,0,-1.00006,1.0959854,166.5262)" d="M116.56932 130.61629H190.18437V157.95954H116.56932Z" fill="#ffffff"/>
<path transform="matrix(1.00006,0,0,-1.00006,1.0959854,166.5262)" stroke-width=".3985" stroke-linecap="butt" stroke-miterlimit="10" stroke-linejoin="miter" fill="none" stroke="#000000" d="M116.56932 130.61629H190.18437V157.95954H116.56932Z"/>
<path transform="matrix(1.00006,0,0,-1.00006,121.06018,17.34526)" stroke-width=".79701" stroke-linecap="butt" stroke-miterlimit="10" stroke-linejoin="miter" fill="none" stroke="#0000ff" d="M0 0H8.50412 17.00826"/>
<use data-text="y" xlink:href="#font_5_2" transform="matrix(9.963197,0,0,-9.963197,140.45934,20.653458)"/>
<use data-text="=" xlink:href="#font_2_5" transform="matrix(9.963197,0,0,-9.963197,148.46881,20.653458)"/>
<use data-text="x" xlink:href="#font_5_1" transform="matrix(9.963197,0,0,-9.963197,158.98545,20.653458)"/>
<use data-text="2" xlink:href="#font_6_1" transform="matrix(6.9742186,0,0,-6.9742186,164.67978,17.038224)"/>
<use data-text="&#x2212;" xlink:href="#font_1_1" transform="matrix(9.963197,0,0,-9.963197,171.36319,20.653458)"/>
<use data-text="2" xlink:href="#font_2_2" transform="matrix(9.963197,0,0,-9.963197,181.32678,20.653458)"/>
<path transform="matrix(1.00006,0,0,-1.00006,121.06018,29.024964)" stroke-width=".79701" stroke-linecap="butt" stroke-miterlimit="10" stroke-linejoin="miter" fill="none" stroke="#ff0000" d="M0 0H8.50412 17.00826"/>
<use data-text="y" xlink:href="#font_5_2" transform="matrix(9.963197,0,0,-9.963197,151.27399,30.42305)"/>
<use data-text="=" xlink:href="#font_2_5" transform="matrix(9.963197,0,0,-9.963197,159.28347,30.42305)"/>
<use data-text="x" xlink:href="#font_5_1" transform="matrix(9.963197,0,0,-9.963197,169.8001,30.42305)"/>
</svg>
