<svg xmlns="http://www.w3.org/2000/svg" xmlns:xlink="http://www.w3.org/1999/xlink" xmlns:inkscape="http://www.inkscape.org/namespaces/inkscape" version="1.1" width="204" height="171" viewBox="0 0 204 171">
<defs>
<path id="font_1_1" d="M.6589966 .23046875C.6759949 .23046875 .69400027 .23046875 .69400027 .25045777 .69400027 .27046205 .6759949 .27046205 .6589966 .27046205H.117996219C.100997928 .27046205 .08299255 .27046205 .08299255 .25045777 .08299255 .23046875 .100997928 .23046875 .117996219 .23046875H.6589966Z"/>
<path id="font_2_3" d="M.1269989 .07699585 .23298645 .18003845C.3889923 .31811524 .44898988 .3721466 .44898988 .47216798 .44898988 .5860901 .35899354 .6660156 .23699951 .6660156 .12399292 .6660156 .049987794 .57411196 .049987794 .48516847 .049987794 .4291687 .099990848 .4291687 .102996829 .4291687 .11999512 .4291687 .15499878 .44117738 .15499878 .48217774 .15499878 .5081787 .13699341 .5341797 .101989749 .5341797 .09399414 .5341797 .09199524 .5341797 .08898926 .5331726 .11199951 .59806826 .1659851 .63500979 .22399903 .63500979 .31498719 .63500979 .35798646 .5541382 .35798646 .47216798 .35798646 .39215089 .30799867 .31311036 .25299073 .25108338L.06098938 .036987306C.049987794 .025985718 .049987794 .023986817 .049987794 0H.42099L.44898988 .17404175H.42399598C.4189911 .14402771 .4119873 .1000061 .4019928 .084991458 .394989 .07699585 .32899476 .07699585 .30699159 .07699585H.1269989Z"/>
<path id="font_2_2" d="M.2939911 .64004519C.2939911 .66400149 .2939911 .6660156 .2709961 .6660156 .20899964 .60227969 .12098694 .60227969 .08898926 .60227969V.57128909C.10899353 .57128909 .16799927 .57128909 .21998596 .5972748V.07902527C.21998596 .042999269 .21699524 .0309906 .1269989 .0309906H.09498596V0C.12998963 .0029907227 .21699524 .0029907227 .25698854 .0029907227 .29699708 .0029907227 .38398744 .0029907227 .4189911 0V.0309906H.3869934C.29699708 .0309906 .2939911 .041992189 .2939911 .07902527V.64004519Z"/>
<path id="font_2_1" d="M.45999146 .31976319C.45999146 .39982606 .45498658 .47988893 .41999818 .5539398 .37399293 .65000918 .2919922 .6660156 .25 .6660156 .18998719 .6660156 .116989139 .64001467 .07598877 .54693606 .04399109 .47789 .038986207 .39982606 .038986207 .31976319 .038986207 .24472046 .042999269 .15464783 .083999637 .07859802 .1269989-.0024719239 .19999695-.022460938 .24899292-.022460938 .30299378-.022460938 .3789978-.0014648438 .4229889 .09359741 .45498658 .16265869 .45999146 .2407074 .45999146 .31976319M.24899292-.00047302247C.20999146-.00047302247 .15098572 .024551392 .1329956 .12062073 .12199402 .18066406 .12199402 .2727356 .12199402 .3317871 .12199402 .39582826 .12199402 .46188355 .12998963 .5159149 .14898682 .63500979 .22399903 .64401248 .24899292 .64401248 .28199769 .64401248 .34799195 .6259918 .36698915 .52693179 .3769989 .47088624 .3769989 .39482118 .3769989 .3317871 .3769989 .25672914 .3769989 .18867493 .3659973 .12461853 .35099793 .029556275 .2939911-.00047302247 .24899292-.00047302247Z"/>
<path id="font_3_1" d="M.19198609 .052993776C.19198609 .08198547 .16799927 .10598755 .13899231 .10598755 .10998535 .10598755 .085998538 .08198547 .085998538 .052993776 .085998538 .023986817 .10998535 0 .13899231 0 .16799927 0 .19198609 .023986817 .19198609 .052993776Z"/>
<path id="font_2_4" d="M.44898988 .20022583C.44898988 .3193512 .36698915 .41944886 .25898744 .41944886 .21099854 .41944886 .16799927 .40345765 .13198853 .36842347V.5637665C.1519928 .5577698 .18499756 .55078127 .21699524 .55078127 .33999635 .55078127 .4099884 .6417694 .4099884 .6547699 .4099884 .6607666 .40699769 .6657715 .3999939 .6657715 .39898683 .6657715 .39698792 .6657715 .3919983 .66278079 .37199403 .6537781 .32299806 .6337738 .2559967 .6337738 .21598816 .6337738 .16999817 .6407776 .12298584 .6617737 .114990238 .66477969 .11299133 .66477969 .11099243 .66477969 .100997928 .66477969 .100997928 .6567688 .100997928 .6407776V.34439088C.100997928 .32637025 .100997928 .31835938 .114990238 .31835938 .12199402 .31835938 .12399292 .32136537 .12799073 .32736207 .13899231 .3433838 .17599488 .39746095 .25698854 .39746095 .30899049 .39746095 .33399964 .35139466 .34199525 .33337403 .35798646 .29632569 .3600006 .25727845 .3600006 .20722962 .3600006 .17222595 .3600006 .11222839 .33599855 .07035828 .31199647 .031463624 .2749939 .0055389406 .22898865 .0055389406 .1559906 .0055389406 .09899902 .058380128 .08198547 .11723328 .084991458 .1162262 .08799744 .115234378 .09899902 .115234378 .13198853 .115234378 .14898682 .14022827 .14898682 .16423035 .14898682 .18823242 .13198853 .21322632 .09899902 .21322632 .084991458 .21322632 .049987794 .20622254 .049987794 .16023255 .049987794 .07434082 .11898804-.022460938 .23098755-.022460938 .34700013-.022460938 .44898988 .073349 .44898988 .20022583Z"/>
<clipPath id="clip_4">
<path transform="matrix(1.00002,0,0,-1.00005,6.581848,166.53168)" d="M0 0H194.26912V161.3956H0Z"/>
</clipPath>
<path id="font_3_2" d="M.33399964 .30233766C.33999635 .32835389 .36299134 .42037965 .43299867 .42037965 .43798829 .42037965 .46199037 .42037965 .48298646 .40734864 .45498658 .402359 .43499757 .37734986 .43499757 .35334779 .43499757 .33735658 .44599916 .31835938 .47299195 .31835938 .49499513 .31835938 .5269928 .3363495 .5269928 .37635804 .5269928 .42837525 .46798707 .4423828 .43399049 .4423828 .37599183 .4423828 .34098817 .38935853 .32899476 .36634828 .3039856 .43237306 .25 .4423828 .22099304 .4423828 .116989139 .4423828 .05999756 .3133545 .05999756 .28834535 .05999756 .27833558 .069992069 .27833558 .07199097 .27833558 .07998657 .27833558 .08299255 .28033448 .084991458 .28933717 .11898804 .39535523 .18499756 .42037965 .21899414 .42037965 .23799134 .42037965 .272995 .4113617 .272995 .35334779 .272995 .32235719 .2559967 .25532533 .21899414 .11528015 .20298767 .053268434 .16799927 .011245728 .12399292 .011245728 .117996219 .011245728 .09498596 .011245728 .07398987 .024276734 .09899902 .029266358 .12098694 .05027771 .12098694 .07827759 .12098694 .105270389 .09899902 .11328125 .083999637 .11328125 .053985597 .11328125 .0289917 .08728027 .0289917 .055267335 .0289917 .009246826 .07899475-.0107421879 .12298584-.0107421879 .18899536-.0107421879 .22499085 .059280397 .22799683 .0652771 .23999024 .028274537 .27598573-.0107421879 .33599855-.0107421879 .43899537-.0107421879 .49598695 .118270877 .49598695 .14328003 .49598695 .1532898 .4869995 .1532898 .48399354 .1532898 .47499085 .1532898 .47299195 .14929199 .47099305 .14228821 .43798829 .03527832 .36999513 .011245728 .33799745 .011245728 .29899598 .011245728 .2829895 .043273927 .2829895 .07727051 .2829895 .09927368 .2889862 .121276859 .2999878 .16529846L.33399964 .30233766Z"/>
<path id="font_3_3" d="M.48599244 .38136292C.48999024 .39537049 .48999024 .39736939 .48999024 .40437318 .48999024 .42237855 .47599793 .43138124 .46099855 .43138124 .45098878 .43138124 .43499757 .42536927 .42599488 .41036988 .42399598 .405365 .41600038 .37435914 .4119873 .35635377 .40499879 .33035279 .397995 .30334474 .3919983 .27633668L.34700013 .09628296C.34298707 .08126831 .2999878 .011245728 .23399353 .011245728 .18299866 .011245728 .17199707 .055267335 .17199707 .0922699 .17199707 .1382904 .18899536 .20030213 .22299195 .28833009 .23899842 .3293457 .24299622 .3403473 .24299622 .36035157 .24299622 .405365 .21099854 .4423828 .16099549 .4423828 .06599426 .4423828 .0289917 .29733277 .0289917 .28833009 .0289917 .27833558 .038986207 .27833558 .040985109 .27833558 .050994874 .27833558 .051986696 .28033448 .056991579 .29634095 .083999637 .3903656 .12399292 .42037965 .1579895 .42037965 .1659851 .42037965 .18299866 .42037965 .18299866 .3883667 .18299866 .36335755 .17298889 .3373413 .1659851 .31834413 .12599182 .21231079 .10798645 .1552887 .10798645 .10827637 .10798645 .019256592 .17098999-.0107421879 .22999573-.0107421879 .2689972-.0107421879 .30299378 .0062561037 .33099366 .03425598 .31799317-.017745972 .30599977-.06674194 .2659912-.11973572 .23999024-.15385437 .20199585-.18309021 .1559906-.18309021 .14199829-.18309021 .09700012-.18005371 .07998657-.14074707 .09599304-.14074707 .10899353-.14074707 .12298584-.1287384 .1329956-.11973572 .14299011-.10673523 .14299011-.08773804 .14299011-.056747438 .115997318-.052734376 .10598755-.052734376 .08299255-.052734376 .049987794-.068740848 .049987794-.11773682 .049987794-.16796875 .09399414-.20507813 .1559906-.20507813 .25898744-.20507813 .3619995-.11373901 .3899994-.00074768069L.48599244 .38136292Z"/>
</defs>
<path transform="matrix(1.00002,0,0,-1.00005,6.581848,166.53168)" stroke-width=".19925" stroke-linecap="butt" stroke-miterlimit="10" stroke-linejoin="miter" fill="none" stroke="#7f807f" d="M0 30.15306V34.40515M48.56728 30.15306V34.40515M145.70183 30.15306V34.40515M194.26912 30.15306V34.40515"/>
<path transform="matrix(1.00002,0,0,-1.00005,6.581848,166.53168)" stroke-width=".19925" stroke-linecap="butt" stroke-miterlimit="10" stroke-linejoin="miter" fill="none" stroke="#7f807f" d="M95.00867 0H99.26042M95.00867 64.55823H99.26042M95.00867 96.83736H99.26042M95.00867 129.11647H99.26042M95.00867 161.3956H99.26042"/>
<path transform="matrix(1.00002,0,0,-1.00005,6.581848,166.53168)" stroke-width=".3985" stroke-linecap="butt" stroke-miterlimit="10" stroke-linejoin="miter" fill="none" stroke="#000000" d="M0 32.27911H192.2766"/>
<path transform="matrix(1.00002,0,0,-1.00005,198.86229,134.25095)" d="M1.99252 0-1.19551 1.59401 0 0-1.19551-1.59401"/>
<path transform="matrix(1.00002,0,0,-1.00005,6.581848,166.53168)" stroke-width=".3985" stroke-linecap="butt" stroke-miterlimit="10" stroke-linejoin="miter" fill="none" stroke="#000000" d="M97.13455 0V159.40308"/>
<path transform="matrix(0,-1.00005,-1.00002,-0,103.718349,7.120636)" d="M1.99252 0-1.19551 1.59401 0 0-1.19551-1.59401"/>
<use data-text="&#x2212;" xlink:href="#font_1_1" transform="matrix(9.962799,0,0,-9.963098,.21672058,146.31768)"/>
<use data-text="2" xlink:href="#font_2_3" transform="matrix(9.962799,0,0,-9.963098,7.9658815,146.31768)"/>
<use data-text="&#x2212;" xlink:href="#font_1_1" transform="matrix(9.962799,0,0,-9.963098,48.784696,146.31768)"/>
<use data-text="1" xlink:href="#font_2_2" transform="matrix(9.962799,0,0,-9.963098,56.533857,146.31768)"/>
<use data-text="1" xlink:href="#font_2_2" transform="matrix(9.962799,0,0,-9.963098,149.79572,146.31768)"/>
<use data-text="2" xlink:href="#font_2_3" transform="matrix(9.962799,0,0,-9.963098,198.3637,146.31768)"/>
<use data-text="&#x2212;" xlink:href="#font_1_1" transform="matrix(9.962799,0,0,-9.963098,77.59327,169.32682)"/>
<use data-text="0" xlink:href="#font_2_1" transform="matrix(9.962799,0,0,-9.963098,85.34243,169.32682)"/>
<use data-text="." xlink:href="#font_3_1" transform="matrix(9.962799,0,0,-9.963098,90.32353,169.32682)"/>
<use data-text="5" xlink:href="#font_2_4" transform="matrix(9.962799,0,0,-9.963098,93.09058,169.32682)"/>
<use data-text="0" xlink:href="#font_2_1" transform="matrix(9.962799,0,0,-9.963098,85.34243,105.18062)"/>
<use data-text="." xlink:href="#font_3_1" transform="matrix(9.962799,0,0,-9.963098,90.32354,105.18062)"/>
<use data-text="5" xlink:href="#font_2_4" transform="matrix(9.962799,0,0,-9.963098,93.09059,105.18062)"/>
<use data-text="1" xlink:href="#font_2_2" transform="matrix(9.962799,0,0,-9.963098,93.09058,72.9)"/>
<use data-text="1" xlink:href="#font_2_2" transform="matrix(9.962799,0,0,-9.963098,85.34243,40.619394)"/>
<use data-text="." xlink:href="#font_3_1" transform="matrix(9.962799,0,0,-9.963098,90.32354,40.619394)"/>
<use data-text="5" xlink:href="#font_2_4" transform="matrix(9.962799,0,0,-9.963098,93.09059,40.619394)"/>
<use data-text="2" xlink:href="#font_2_3" transform="matrix(9.962799,0,0,-9.963098,93.09058,8.338776)"/>
<g clip-path="url(#clip_4)">
<path transform="matrix(1.00002,0,0,-1.00005,6.581848,166.53168)" stroke-width=".79701" stroke-linecap="butt" stroke-miterlimit="10" stroke-linejoin="miter" fill="none" stroke="#0000ff" d="M9.71346 356.2059 11.47948 319.8117 13.24553 286.26353 15.01157 255.42853 16.7776 227.18125 18.54364 201.39813 20.30968 177.9551 22.07573 156.7336 23.84177 137.61782 25.6078 120.49435 27.37384 105.25061 29.1399 91.77907 30.90593 79.97464 32.67197 69.73335 34.438 60.9553 36.20406 53.54356 37.9701 47.40236 39.73613 42.44012 41.50217 38.56747 43.26822 35.69783 45.03426 33.74687 46.8003 32.63345 48.56633 32.27911 50.33238 32.60791 52.09842 33.54675 53.86446 35.02515 55.63051 36.97543 57.39655 39.33253 59.16261 42.03421 60.92865 45.02081 62.6947 48.23547 64.46074 51.62398 66.2268 55.13489 67.99284 58.71944 69.7589 62.33156 71.52493 65.9279 73.29099 69.46783 75.05702 72.91344 76.82307 76.22948 78.58913 79.38348 80.35518 82.3456 82.12122 85.08876 83.88727 87.58858 85.65332 89.8234 87.41936 91.77422 89.18541 93.42482 90.95145 94.76161 92.7175 95.7738 94.48354 96.45323 96.2496 96.7945 98.01564 96.79486 99.7817 96.45435 101.54773 95.77565 103.3138 94.76419 105.07983 93.42807 106.84589 91.77815 108.61192 89.82796 110.37798 87.59377 112.14401 85.09448 113.91008 82.35184 115.67612 79.39017 117.44217 76.23656 119.2082 72.92082 120.97426 69.47546 122.74031 65.93568 124.50635 62.33942 126.2724 58.7273 128.03844 55.14265 129.80449 51.63153 131.57053 48.24269 133.3366 45.0276 135.10263 42.04045 136.86869 39.3381 138.63472 36.98018 140.40079 35.02892 142.16683 33.54941 143.93288 32.60931 145.69892 32.27911 147.46497 32.63197 149.231 33.74352 150.99706 35.69261 152.76308 38.56038 154.52912 42.43057 156.29517 47.39035 158.0612 53.5288 159.82724 60.93765 161.59328 69.71266 163.35933 79.95071 165.12537 91.75226 166.8914 105.21939 168.65744 120.45908 170.4235 137.5791 172.18953 156.68985 173.95557 177.90622 175.7216 201.34455 177.48766 227.12235 179.2537 255.3641 181.01973 286.19319 182.78577 319.73686 184.55182 356.12358"/>
</g>
<path transform="matrix(1.00002,0,0,-1.00005,6.581848,166.53168)" d="M50.55983 32.27911C50.55983 33.37958 49.66774 34.27167 48.56728 34.27167 47.4668 34.27167 46.57472 33.37958 46.57472 32.27911 46.57472 31.17863 47.4668 30.28656 48.56728 30.28656 49.66774 30.28656 50.55983 31.17863 50.55983 32.27911ZM48.56728 32.27911" fill="#0000ff"/>
<path transform="matrix(1.00002,0,0,-1.00005,6.581848,166.53168)" stroke-width=".3985" stroke-linecap="butt" stroke-miterlimit="10" stroke-linejoin="miter" fill="none" stroke="#0000ff" d="M50.55983 32.27911C50.55983 33.37958 49.66774 34.27167 48.56728 34.27167 47.4668 34.27167 46.57472 33.37958 46.57472 32.27911 46.57472 31.17863 47.4668 30.28656 48.56728 30.28656 49.66774 30.28656 50.55983 31.17863 50.55983 32.27911ZM48.56728 32.27911"/>
<path transform="matrix(1.00002,0,0,-1.00005,6.581848,166.53168)" d="M99.1271 96.83736C99.1271 97.93782 98.23503 98.82991 97.13455 98.82991 96.03409 98.82991 95.142 97.93782 95.142 96.83736 95.142 95.73688 96.03409 94.8448 97.13455 94.8448 98.23503 94.8448 99.1271 95.73688 99.1271 96.83736ZM97.13455 96.83736" fill="#0000ff"/>
<path transform="matrix(1.00002,0,0,-1.00005,6.581848,166.53168)" stroke-width=".3985" stroke-linecap="butt" stroke-miterlimit="10" stroke-linejoin="miter" fill="none" stroke="#0000ff" d="M99.1271 96.83736C99.1271 97.93782 98.23503 98.82991 97.13455 98.82991 96.03409 98.82991 95.142 97.93782 95.142 96.83736 95.142 95.73688 96.03409 94.8448 97.13455 94.8448 98.23503 94.8448 99.1271 95.73688 99.1271 96.83736ZM97.13455 96.83736"/>
<path transform="matrix(1.00002,0,0,-1.00005,6.581848,166.53168)" d="M147.69438 32.27911C147.69438 33.37958 146.8023 34.27167 145.70183 34.27167 144.60137 34.27167 143.70928 33.37958 143.70928 32.27911 143.70928 31.17863 144.60137 30.28656 145.70183 30.28656 146.8023 30.28656 147.69438 31.17863 147.69438 32.27911ZM145.70183 32.27911" fill="#0000ff"/>
<path transform="matrix(1.00002,0,0,-1.00005,6.581848,166.53168)" stroke-width=".3985" stroke-linecap="butt" stroke-miterlimit="10" stroke-linejoin="miter" fill="none" stroke="#0000ff" d="M147.69438 32.27911C147.69438 33.37958 146.8023 34.27167 145.70183 34.27167 144.60137 34.27167 143.70928 33.37958 143.70928 32.27911 143.70928 31.17863 144.60137 30.28656 145.70183 30.28656 146.8023 30.28656 147.69438 31.17863 147.69438 32.27911ZM145.70183 32.27911"/>
<path transform="matrix(1.00002,0,0,-1.00005,6.581848,166.53168)" stroke-width=".3985" stroke-linecap="butt" stroke-miterlimit="10" stroke-linejoin="miter" fill="none" stroke="#0000ff" d=""/>
<use data-text="x" xlink:href="#font_3_2" transform="matrix(9.962799,0,0,-9.963098,191.67256,130.72589)"/>
<use data-text="y" xlink:href="#font_3_3" transform="matrix(9.962799,0,0,-9.963098,107.25686,12.915009)"/>
</svg>
