<svg xmlns="http://www.w3.org/2000/svg" xmlns:xlink="http://www.w3.org/1999/xlink" xmlns:inkscape="http://www.inkscape.org/namespaces/inkscape" version="1.1" width="75" height="78" viewBox="0 0 75 78">
<defs>
<path id="font_1_2" d="M.08799744 .059265138C.084991458 .044265748 .07899475 .021255494 .07899475 .01625061 .07899475-.0017547608 .09298706-.0107421879 .10798645-.0107421879 .11999512-.0107421879 .13798523-.002746582 .14498902 .01725769 .14698792 .021255494 .18099976 .15730286 .18499756 .17530823 .19299317 .20831299 .21099854 .27833558 .21699524 .30534364 .22099304 .31835938 .24899292 .36535646 .272995 .38734437 .2809906 .39434815 .30999757 .42037965 .35299684 .42037965 .3789978 .42037965 .3939972 .4083557 .394989 .4083557 .36499024 .40335084 .34298707 .37934876 .34298707 .35334779 .34298707 .33735658 .35398866 .31835938 .3809967 .31835938 .4079895 .31835938 .43598939 .34135438 .43598939 .37734986 .43598939 .41235353 .4039917 .4423828 .35299684 .4423828 .28799439 .4423828 .24398804 .39335633 .22499085 .36535646 .21699524 .4103546 .18099976 .4423828 .13398743 .4423828 .08799744 .4423828 .068984989 .40335084 .05999756 .38534547 .041992189 .35134889 .0289917 .29133607 .0289917 .28834535 .0289917 .27833558 .038986207 .27833558 .040985109 .27833558 .050994874 .27833558 .051986696 .27934266 .057998659 .30134584 .07499695 .37234498 .09498596 .42037965 .1309967 .42037965 .147995 .42037965 .1619873 .41235353 .1619873 .37435914 .1619873 .35334779 .15899658 .3423462 .1459961 .29034425L.08799744 .059265138Z"/>
<path id="font_1_1" d="M.2869873 .68333438C.2869873 .6843262 .2869873 .69433596 .27398683 .69433596 .25099183 .69433596 .17799378 .6863251 .1519928 .6843262 .14399719 .68333438 .1329956 .6823273 .1329956 .6643219 .1329956 .6523285 .14199829 .6523285 .15699768 .6523285 .20498657 .6523285 .20698548 .6453247 .20698548 .6353302L.20399475 .6153412 .05899048 .039260866C.054992677 .025253296 .054992677 .023254395 .054992677 .01725769 .054992677-.0057525637 .07499695-.0107421879 .083999637-.0107421879 .099990848-.0107421879 .115997318 .0012512207 .12098694 .015258789L.13999939 .091278079 .1619873 .18130493C.16799927 .2033081 .17399597 .22531128 .1789856 .24832154 .18099976 .25431825 .18899536 .28733827 .18998719 .29333497 .19299317 .30233766 .22399903 .35835267 .2579956 .38536073 .27999879 .4013672 .31098939 .42037965 .35398866 .42037965 .39698792 .42037965 .4079895 .3863678 .4079895 .35035707 .4079895 .29634095 .36999513 .18730164 .34599305 .12628174 .33799745 .103271488 .33299256 .091278079 .33299256 .0712738 .33299256 .024261475 .36799623-.0107421879 .4149933-.0107421879 .5089874-.0107421879 .54599 .13528443 .54599 .14329529 .54599 .1532898 .5369873 .1532898 .5339966 .1532898 .5239868 .1532898 .5239868 .15029907 .5189972 .13528443 .5039978 .08227539 .47200013 .011245728 .4169922 .011245728 .3999939 .011245728 .3929901 .021255494 .3929901 .044265748 .3929901 .0692749 .4019928 .09327698 .41099549 .11528015 .4269867 .15829468 .47200013 .2773285 .47200013 .3353424 .47200013 .4003601 .43199159 .4423828 .35699464 .4423828 .2939911 .4423828 .24598694 .41137696 .20899964 .36535646L.2869873 .68333438Z"/>
</defs>
<path transform="matrix(1,0,0,-1.00006,44.492998,67.4262)" d="M-28.3468 0V56.69362H28.3468V0ZM28.3468 56.69362" fill="#f2f2f2"/>
<path transform="matrix(1,0,0,-1.00006,44.492998,67.4262)" d="M28.3468 0C28.3468 4.69675 15.6557 8.50412 0 8.50412-15.6557 8.50412-28.3468 4.69675-28.3468 0-28.3468-4.69675-15.6557-8.50412 0-8.50412 15.6557-8.50412 28.3468-4.69675 28.3468 0ZM0 0" fill="#e5e6e5"/>
<path transform="matrix(1,0,0,-1.00006,44.492998,67.4262)" d="M28.3468 56.69362C28.3468 61.39037 15.6557 65.19774 0 65.19774-15.6557 65.19774-28.3468 61.39037-28.3468 56.69362-28.3468 51.99686-15.6557 48.18948 0 48.18948 15.6557 48.18948 28.3468 51.99686 28.3468 56.69362ZM0 56.69362" fill="#f9f9f9"/>
<path transform="matrix(1,0,0,-1.00006,44.492998,67.4262)" stroke-width=".79701" stroke-linecap="butt" stroke-miterlimit="10" stroke-linejoin="miter" fill="none" stroke="#000000" d="M-28.3468 0V56.69362"/>
<path transform="matrix(1,0,0,-1.00006,44.492998,67.4262)" stroke-width=".79701" stroke-linecap="butt" stroke-miterlimit="10" stroke-linejoin="miter" fill="none" stroke="#000000" d="M28.3468 0V56.69362"/>
<path transform="matrix(1,0,0,-1.00006,44.492998,67.4262)" stroke-width=".79701" stroke-linecap="butt" stroke-miterlimit="10" stroke-linejoin="miter" fill="none" stroke="#000000" d="M28.3468 56.69362C28.3468 61.39037 15.6557 65.19774 0 65.19774-15.6557 65.19774-28.3468 61.39037-28.3468 56.69362-28.3468 51.99686-15.6557 48.18948 0 48.18948 15.6557 48.18948 28.3468 51.99686 28.3468 56.69362ZM0 56.69362"/>
<path transform="matrix(1,0,0,-1.00006,44.492998,67.4262)" stroke-width=".79701" stroke-linecap="butt" stroke-miterlimit="10" stroke-linejoin="miter" fill="none" stroke="#000000" d="M-28.3468 0C-28.3468-4.69675-15.6557-8.50412 0-8.50412 15.6557-8.50412 28.3468-4.69675 28.3468 0"/>
<path transform="matrix(1,0,0,-1.00006,44.492998,67.4262)" stroke-width=".3985" stroke-linecap="butt" stroke-dasharray="2.98883,2.98883" stroke-miterlimit="10" stroke-linejoin="miter" fill="none" stroke="#7f807f" d="M-28.3468 0C-28.3468 4.69675-15.6557 8.50412 0 8.50412 15.6557 8.50412 28.3468 4.69675 28.3468 0"/>
<path transform="matrix(1,0,0,-1.00006,44.492998,67.4262)" stroke-width=".79701" stroke-linecap="butt" stroke-miterlimit="10" stroke-linejoin="miter" fill="none" stroke="#0000ff" d="M0 56.69362H27.63943"/>
<path transform="matrix(1,0,0,-1.00006,72.13242,10.729183)" stroke-width=".6376" stroke-linecap="round" stroke-linejoin="round" fill="none" stroke="#0000ff" d="M-1.55415 2.0722C-1.42464 1.29512 0 .1295 .38852 0 0-.1295-1.42464-1.29512-1.55415-2.0722"/>
<use data-text="r" xlink:href="#font_1_2" transform="matrix(9.9626,0,0,-9.963197,56.281,7.209591)" fill="#0000ff"/>
<path transform="matrix(1,0,0,-1.00006,44.492998,67.4262)" stroke-width=".3985" stroke-linecap="butt" stroke-miterlimit="10" stroke-linejoin="miter" fill="none" stroke="#0000ff" d="M-34.01608 .45827V56.23534"/>
<path transform="matrix(0,1.00006,1,0,10.476917,66.9679)" stroke-width=".31879" stroke-linecap="round" stroke-linejoin="round" fill="none" stroke="#0000ff" d="M-1.19551 1.59401C-1.09587 .99626 0 .09961 .29886 0 0-.09961-1.09587-.99626-1.19551-1.59401"/>
<path transform="matrix(0,-1.00006,-1,-0,10.476917,11.187489)" stroke-width=".31879" stroke-linecap="round" stroke-linejoin="round" fill="none" stroke="#0000ff" d="M-1.19551 1.59401C-1.09587 .99626 0 .09961 .29886 0 0-.09961-1.09587-.99626-1.19551-1.59401"/>
<use data-text="h" xlink:href="#font_1_1" transform="matrix(9.9626,0,0,-9.963197,1.2169952,42.53671)" fill="#0000ff"/>
</svg>
