<svg xmlns="http://www.w3.org/2000/svg" xmlns:xlink="http://www.w3.org/1999/xlink" xmlns:inkscape="http://www.inkscape.org/namespaces/inkscape" version="1.1" width="240" height="111" viewBox="0 0 240 111">
<defs>
<path id="font_1_27" d="M.71699526 0V.0309906H.69898989C.6389923 .0309906 .625 .037979127 .6139984 .07095337L.397995 .6958008C.3929901 .7088165 .3909912 .7158203 .375 .7158203 .35899354 .7158203 .35598756 .70980837 .35099793 .6958008L.14399719 .09791565C.12599182 .04698181 .085998538 .03199768 .03199768 .0309906V0L.13398743 .0029907227 .24899292 0V.0309906C.19898987 .0309906 .17399597 .05596924 .17399597 .0819397 .17399597 .08493042 .1749878 .09492493 .17599488 .09692383L.22200012 .2277832H.46899415L.5219879 .07495117C.522995 .07095337 .5249939 .064956668 .5249939 .060958864 .5249939 .0309906 .46899415 .0309906 .44198609 .0309906V0C.47799684 .0029907227 .5479889 .0029907227 .58599856 .0029907227L.71699526 0M.45799256 .25878907H.23298645L.34498597 .58380129 .45799256 .25878907Z"/>
<path id="font_1_47" d="M.5269928 0V.0309906C.45700074 .0309906 .44898988 .038009645 .44898988 .0871582V.69433596L.30499269 .6826172V.6516113C.375 .6516113 .3829956 .64463809 .3829956 .59580996V.38035584C.35398866 .41636659 .31098939 .4423828 .25698854 .4423828 .13899231 .4423828 .033996583 .3443451 .033996583 .21531677 .033996583 .088272098 .13198853-.0107421879 .24598694-.0107421879 .30999757-.0107421879 .35499574 .023254395 .37998963 .055267335V-.0107421879L.5269928 0M.37998963 .117996219C.37998963 .099990848 .37998963 .09799194 .36898805 .08099365 .33898927 .033218385 .2939911 .011245728 .25099183 .011245728 .20599365 .011245728 .16999817 .037216188 .1459961 .075164798 .11999512 .1161499 .116989139 .17320252 .116989139 .21421814 .116989139 .25125123 .11898804 .31129457 .147995 .35632325 .16899109 .38734437 .20698548 .42037965 .26098634 .42037965 .29599 .42037965 .33799745 .405365 .36898805 .3603363 .37998963 .34332276 .37998963 .34132386 .37998963 .32330323V.117996219Z"/>
<path id="font_1_68" d="M.20999146-.049972536V.4423828L.057998659 .43138124V.40037538C.1349945 .40037538 .14399719 .39337159 .14399719 .34432984V-.051971437C.14399719-.09700012 .1349945-.18309021 .070999149-.18309021 .06599426-.18309021 .042999269-.18309021 .016998291-.17001343 .03199768-.16600037 .051986696-.1519928 .051986696-.125 .051986696-.09899902 .033996583-.07899475 .005996704-.07899475-.022003174-.07899475-.040008546-.09899902-.040008546-.125-.040008546-.17704773 .015991211-.20507813 .07299805-.20507813 .147995-.20507813 .20999146-.14100647 .20999146-.049972536M.20999146 .6042175C.20999146 .6312256 .18699646 .65722659 .15699768 .65722659 .12298584 .65722659 .102996829 .6292114 .102996829 .6042175 .102996829 .57722476 .12599182 .55122378 .1559906 .55122378 .18998719 .55122378 .20999146 .57922366 .20999146 .6042175Z"/>
<path id="font_1_28" d="M.48298646 .08912659V.14511109H.45799256V.08912659C.45799256 .03112793 .43299867 .025131226 .42199708 .025131226 .3889923 .025131226 .3849945 .070129398 .3849945 .07511902V.27508546C.3849945 .31707765 .3849945 .3560791 .34899903 .39312745 .30999757 .43223573 .2599945 .4482422 .21199036 .4482422 .12998963 .4482422 .06098938 .40115357 .06098938 .335083 .06098938 .30508424 .08099365 .28808595 .10699463 .28808595 .1349945 .28808595 .15299988 .30807496 .15299988 .33407594 .15299988 .3460846 .147995 .37908937 .101989749 .38008119 .1289978 .41519166 .17799378 .426239 .20999146 .426239 .25898744 .426239 .31599427 .38710023 .31599427 .29808045V.26107789C.2649994 .25808717 .19499207 .25508119 .13198853 .22509766 .056991579 .19110108 .03199768 .13911438 .03199768 .09512329 .03199768 .014251709 .1289978-.0107421879 .19198609-.0107421879 .2579956-.0107421879 .3039856 .029251099 .32299806 .07624817 .32699586 .036132814 .35398866-.005859375 .40098573-.005859375 .42199708-.005859375 .48298646 .008132935 .48298646 .08912659M.31599427 .14013672C.31599427 .04525757 .24398804 .011245728 .19898987 .011245728 .1499939 .011245728 .10899353 .04624939 .10899353 .09625244 .10899353 .15124512 .15098572 .23425293 .31599427 .24024964V.14013672Z"/>
<path id="font_1_43" d="M.4149933 .119140628C.4149933 .12911988 .40499879 .12911988 .4019928 .12911988 .3929901 .12911988 .3909912 .12512207 .3889923 .119140628 .3600006 .026229859 .29499818 .014251709 .2579956 .014251709 .20498657 .014251709 .116989139 .0572052 .116989139 .21801758 .116989139 .38093568 .19898987 .42323304 .2519989 .42323304 .26098634 .42323304 .32398988 .42222596 .35899354 .38594056 .31799317 .38293458 .31199647 .3529358 .31199647 .3399353 .31199647 .31393434 .32998658 .2939453 .35798646 .2939453 .38398744 .2939453 .4039917 .3109436 .4039917 .34094239 .4039917 .40911866 .32798768 .4482422 .25099183 .4482422 .12599182 .4482422 .033996583 .3399353 .033996583 .21601868 .033996583 .08816528 .1329956-.0107421879 .24899292-.0107421879 .3829956-.0107421879 .4149933 .10914612 .4149933 .119140628Z"/>
<path id="font_1_50" d="M.4149933 .11933899C.4149933 .12934876 .40699769 .13134766 .4019928 .13134766 .3929901 .13134766 .3909912 .12535095 .3889923 .11734009 .35398866 .014251709 .2639923 .014251709 .2539978 .014251709 .20399475 .014251709 .1639862 .044281007 .14099121 .08131409 .11099243 .12934876 .11099243 .19540406 .11099243 .23144531H.3899994C.4119873 .23144531 .4149933 .23144531 .4149933 .2524414 .4149933 .35131837 .36099244 .4482422 .23599243 .4482422 .11999512 .4482422 .027999878 .34532167 .027999878 .22042847 .027999878 .08631897 .1329956-.0107421879 .24798584-.0107421879 .36999513-.0107421879 .4149933 .10032654 .4149933 .11933899M.34899903 .2524414H.11199951C.117996219 .40126039 .20199585 .426239 .23599243 .426239 .33898927 .426239 .34899903 .2913971 .34899903 .2524414Z"/>
<path id="font_1_77" d="M.5349884 0V.0309906C.48298646 .0309906 .45799256 .0309906 .45700074 .061019899V.25221253C.45700074 .3383026 .45700074 .36932374 .42599488 .405365 .4119873 .42237855 .3789978 .4423828 .32099916 .4423828 .24798584 .4423828 .20098877 .39935304 .17298889 .33729554V.4423828L.03199768 .43066407V.3996582C.101989749 .3996582 .10998535 .39266969 .10998535 .34370423V.07595825C.10998535 .0309906 .09899902 .0309906 .03199768 .0309906V0L.14498902 .0029907227 .25698854 0V.0309906C.18998719 .0309906 .1789856 .0309906 .1789856 .07595825V.25978089C.1789856 .36431886 .25 .42037965 .31399537 .42037965 .3769989 .42037965 .3880005 .36631776 .3880005 .30926515V.076034549C.3880005 .0309906 .3769989 .0309906 .30999757 .0309906V0L.4229889 .0029907227 .5349884 0Z"/>
<path id="font_1_105" d="M.33198548 .12385559V.18066406H.30699159V.12585449C.30699159 .052108766 .2769928 .014251709 .23999024 .014251709 .17298889 .014251709 .17298889 .10491943 .17298889 .12187195V.3996582H.31599427V.43066407H.17298889V.6142578H.147995C.14698792 .5324249 .116989139 .42565919 .018997193 .42166139V.3996582H.10398865V.12408447C.10398865 .0012512207 .19699097-.0107421879 .23298645-.0107421879 .3039856-.0107421879 .33198548 .060180665 .33198548 .12408447V.12385559Z"/>
<path id="font_1_52" d="M.72099307 .34713746C.72099307 .36714173 .70199587 .36714173 .6879883 .36714173H.08898926C.07499695 .36714173 .055999757 .36714173 .055999757 .34713746 .055999757 .32714845 .07499695 .32714845 .08999634 .32714845H.68699648C.70199587 .32714845 .72099307 .32714845 .72099307 .34713746M.72099307 .15284729C.72099307 .17285156 .70199587 .17285156 .68699648 .17285156H.08999634C.07499695 .17285156 .055999757 .17285156 .055999757 .15284729 .055999757 .13284302 .07499695 .13284302 .08898926 .13284302H.6879883C.70199587 .13284302 .72099307 .13284302 .72099307 .15284729Z"/>
<path id="font_2_4" d="M.2939911 .64004519C.2939911 .66400149 .2939911 .6660156 .2709961 .6660156 .20899964 .60227969 .12098694 .60227969 .08898926 .60227969V.57128909C.10899353 .57128909 .16799927 .57128909 .21998596 .5972748V.07902527C.21998596 .042999269 .21699524 .0309906 .1269989 .0309906H.09498596V0C.12998963 .0029907227 .21699524 .0029907227 .25698854 .0029907227 .29699708 .0029907227 .38398744 .0029907227 .4189911 0V.0309906H.3869934C.29699708 .0309906 .2939911 .041992189 .2939911 .07902527V.64004519Z"/>
<path id="font_1_80" d="M.72099307 .3387909C.72099307 .5429535 .56999209 .7050781 .3880005 .7050781 .20899964 .7050781 .055999757 .5449524 .055999757 .3387909 .055999757 .13363648 .20999146-.022460938 .3880005-.022460938 .56999209-.022460938 .72099307 .13664246 .72099307 .3387909M.6179962 .35281373C.6179962 .08760071 .48098756 .0035247803 .3889923 .0035247803 .29299928 .0035247803 .15899658 .09159851 .15899658 .35281373 .15899658 .6120148 .30499269 .68006899 .3880005 .68006899 .47499085 .68006899 .6179962 .6090088 .6179962 .35281373Z"/>
<path id="font_1_84" d="M.5209961 .21636963C.5209961 .34336854 .42399598 .4423828 .31199647 .4423828 .23399353 .4423828 .19198609 .39837647 .17199707 .3763733V.4423828L.027999878 .43066407V.3996582C.09899902 .3996582 .10598755 .3936615 .10598755 .34973146V-.117996219C.10598755-.16308594 .09498596-.16308594 .027999878-.16308594V-.1940918L.13999939-.19110108 .25299073-.1940918V-.16308594C.18598938-.16308594 .1749878-.16308594 .1749878-.117996219V.050186159 .059173585C.17999268 .04319763 .22200012-.0107421879 .2979889-.0107421879 .4169922-.0107421879 .5209961 .087127689 .5209961 .21594239V.21636963M.43798829 .21594239C.43798829 .09512329 .36799623 .011245728 .2939911 .011245728 .2539978 .011245728 .21598816 .031219483 .18899536 .07215881 .1749878 .09312439 .1749878 .09411621 .1749878 .114089969V.33674623C.20399475 .38838197 .25299073 .41737367 .3039856 .41737367 .3769989 .41737367 .43798829 .32937623 .43798829 .21636963V.21594239Z"/>
<path id="font_1_81" d="M.47099305 .21424866C.47099305 .34223939 .37098695 .4482422 .25 .4482422 .125 .4482422 .027999878 .3392334 .027999878 .21424866 .027999878 .085250858 .13198853-.0107421879 .24899292-.0107421879 .36999513-.0107421879 .47099305 .087249759 .47099305 .21424866M.3880005 .22224427C.3880005 .18624878 .3880005 .13224793 .3659973 .08824158 .34399415 .04324341 .2999878 .014251709 .25 .014251709 .20698548 .014251709 .16299439 .035247804 .13598633 .08125305 .11099243 .12524414 .11099243 .18624878 .11099243 .22224427 .11099243 .26124574 .11099243 .31523133 .1349945 .35923768 .1619873 .40522767 .20899964 .426239 .24899292 .426239 .29299928 .426239 .33599855 .40423585 .3619995 .36123658 .3880005 .3182373 .3880005 .26023866 .3880005 .22224427Z"/>
<path id="font_1_98" d="M.3600006 .12823487C.3600006 .18122864 .32998658 .21122742 .31799317 .22323609 .2849884 .25523377 .24598694 .26322938 .20399475 .27124024 .147995 .28224183 .08099365 .29522706 .08099365 .35324098 .08099365 .38822938 .10699463 .42922975 .19299317 .42922975 .30299378 .42922975 .30799867 .3392334 .30999757 .30822755 .31098939 .2992401 .32199098 .2992401 .32199098 .2992401 .33499146 .2992401 .33499146 .30422975 .33499146 .32322694V.4242401C.33499146 .4412384 .33499146 .4482422 .32398988 .4482422 .31900025 .4482422 .31698609 .4482422 .3039856 .43623353 .30099488 .43223573 .29100038 .42323304 .2869873 .42022706 .24899292 .4482422 .20799256 .4482422 .19299317 .4482422 .070999149 .4482422 .032989503 .38124085 .032989503 .3252411 .032989503 .29023744 .04899597 .26223756 .07598877 .24023438 .10798645 .2142334 .13598633 .2082367 .20799256 .19422913 .22999573 .19021607 .31199647 .17422486 .31199647 .10221863 .31199647 .051223756 .2769928 .011245728 .19898987 .011245728 .114990238 .011245728 .07899475 .068222049 .05999756 .1532135 .056991579 .16621399 .055999757 .17021179 .04598999 .17021179 .032989503 .17021179 .032989503 .16322327 .032989503 .1452179V.013214111C.032989503-.003753662 .032989503-.0107421879 .04399109-.0107421879 .04899597-.0107421879 .049987794-.009750366 .068984989 .009246826 .070999149 .011245728 .070999149 .013214111 .08898926 .032226564 .1329956-.009750366 .17799378-.0107421879 .19898987-.0107421879 .31399537-.0107421879 .3600006 .05621338 .3600006 .1282196V.12823487Z"/>
<path id="font_1_66" d="M.24699402 0V.0309906C.18099976 .0309906 .1769867 .035995485 .1769867 .075042728V.4423828L.036987306 .43066407V.3996582C.101989749 .3996582 .11099243 .3936615 .11099243 .3447113V.07595825C.11099243 .0309906 .099990848 .0309906 .032989503 .0309906V0L.14299011 .0029907227C.17799378 .0029907227 .21299744 .0009918213 .24699402 0M.19198609 .603775C.19198609 .6307678 .16899109 .6567688 .13899231 .6567688 .10499573 .6567688 .084991458 .6287689 .084991458 .603775 .084991458 .57676699 .10798645 .55078127 .13798523 .55078127 .17199707 .55078127 .19198609 .5787811 .19198609 .603775Z"/>
<path id="font_3_1" d="M.33399964 .30233766C.33999635 .32835389 .36299134 .42037965 .43299867 .42037965 .43798829 .42037965 .46199037 .42037965 .48298646 .40734864 .45498658 .402359 .43499757 .37734986 .43499757 .35334779 .43499757 .33735658 .44599916 .31835938 .47299195 .31835938 .49499513 .31835938 .5269928 .3363495 .5269928 .37635804 .5269928 .42837525 .46798707 .4423828 .43399049 .4423828 .37599183 .4423828 .34098817 .38935853 .32899476 .36634828 .3039856 .43237306 .25 .4423828 .22099304 .4423828 .116989139 .4423828 .05999756 .3133545 .05999756 .28834535 .05999756 .27833558 .069992069 .27833558 .07199097 .27833558 .07998657 .27833558 .08299255 .28033448 .084991458 .28933717 .11898804 .39535523 .18499756 .42037965 .21899414 .42037965 .23799134 .42037965 .272995 .4113617 .272995 .35334779 .272995 .32235719 .2559967 .25532533 .21899414 .11528015 .20298767 .053268434 .16799927 .011245728 .12399292 .011245728 .117996219 .011245728 .09498596 .011245728 .07398987 .024276734 .09899902 .029266358 .12098694 .05027771 .12098694 .07827759 .12098694 .105270389 .09899902 .11328125 .083999637 .11328125 .053985597 .11328125 .0289917 .08728027 .0289917 .055267335 .0289917 .009246826 .07899475-.0107421879 .12298584-.0107421879 .18899536-.0107421879 .22499085 .059280397 .22799683 .0652771 .23999024 .028274537 .27598573-.0107421879 .33599855-.0107421879 .43899537-.0107421879 .49598695 .118270877 .49598695 .14328003 .49598695 .1532898 .4869995 .1532898 .48399354 .1532898 .47499085 .1532898 .47299195 .14929199 .47099305 .14228821 .43798829 .03527832 .36999513 .011245728 .33799745 .011245728 .29899598 .011245728 .2829895 .043273927 .2829895 .07727051 .2829895 .09927368 .2889862 .121276859 .2999878 .16529846L.33399964 .30233766Z"/>
<path id="font_4_1" d="M.5049896 .18203736H.47099305C.46798707 .16001892 .45799256 .100997928 .44499208 .09098816 .43699647 .084991458 .3600006 .084991458 .34599305 .084991458H.1619873C.2669983 .17803955 .3019867 .20603943 .3619995 .25306703 .43598939 .312088 .5049896 .374115 .5049896 .46914674 .5049896 .5900879 .39898683 .6640625 .2709961 .6640625 .14698792 .6640625 .06298828 .57710269 .06298828 .4851532 .06298828 .43414308 .10598755 .42915345 .115997318 .42915345 .13999939 .42915345 .16899109 .44615174 .16899109 .48214723 .16899109 .5001526 .1619873 .53515627 .10998535 .53515627 .14099121 .6060791 .20899964 .62805178 .2559967 .62805178 .35598756 .62805178 .4079895 .5501404 .4079895 .46914674 .4079895 .38212586 .34599305 .3130951 .31399537 .27708436L.07299805 .038986207C.06298828 .02999878 .06298828 .027999878 .06298828 0H.47499085L.5049896 .18203736Z"/>
<path id="font_2_3" d="M.40899659 .23046875H.6879883C.70199587 .23046875 .72099307 .23046875 .72099307 .25045777 .72099307 .27046205 .70199587 .27046205 .6879883 .27046205H.40899659V.5500183C.40899659 .56399539 .40899659 .5830078 .3889923 .5830078 .36898805 .5830078 .36898805 .56399539 .36898805 .5500183V.27046205H.08898926C.07499695 .27046205 .055999757 .27046205 .055999757 .25045777 .055999757 .23046875 .07499695 .23046875 .08898926 .23046875H.36898805V-.05000305C.36898805-.06401062 .36898805-.08300781 .3889923-.08300781 .40899659-.08300781 .40899659-.06401062 .40899659-.05000305V.23046875Z"/>
<path id="font_2_5" d="M.2899933 .35191346C.37199403 .37893678 .42999269 .4490509 .42999269 .52809146 .42999269 .6100464 .34199525 .6660156 .24598694 .6660156 .14498902 .6660156 .068984989 .60606387 .068984989 .53009036 .068984989 .49710084 .09098816 .47808839 .11999512 .47808839 .15098572 .47808839 .17098999 .50009158 .17098999 .5290985 .17098999 .57910159 .12399292 .57910159 .10899353 .57910159 .13999939 .62802127 .20599365 .64100649 .24198914 .64100649 .2829895 .64100649 .33799745 .6190338 .33799745 .5290985 .33799745 .51708987 .33599855 .45906068 .30999757 .4149933 .27999879 .36691285 .24598694 .36390687 .22099304 .36291505 .21299744 .36190797 .18899536 .35990907 .18199158 .35990907 .17399597 .35890199 .16699219 .35791017 .16699219 .3479004 .16699219 .33691407 .17399597 .33691407 .19099427 .33691407H.23498535C.31698609 .33691407 .35398866 .2686615 .35398866 .17037964 .35398866 .034469606 .2849884 .0055389406 .24099732 .0055389406 .19799805 .0055389406 .12298584 .022491456 .08799744 .08137512 .12298584 .07637024 .1539917 .09837341 .1539917 .1363678 .1539917 .17237854 .1269989 .19238281 .09799194 .19238281 .07398987 .19238281 .041992189 .17837525 .041992189 .1343689 .041992189 .043441774 .1349945-.022460938 .24398804-.022460938 .3659973-.022460938 .45700074 .06838989 .45700074 .17037964 .45700074 .252594 .3939972 .33088685 .2899933 .35191346Z"/>
<path id="font_1_62" d="M.71598818 0V.0309906H.69200137C.61499026 .0309906 .61299136 .041992189 .61299136 .07797241V.6046448C.61299136 .640625 .61499026 .6516113 .69200137 .6516113H.71598818V.6826172C.68099978 .6796112 .6069946 .6796112 .56900027 .6796112 .5309906 .6796112 .45599366 .6796112 .42099 .6826172V.6516113H.44499208C.5219879 .6516113 .5239868 .640625 .5239868 .6046448V.37083436H.22499085V.6046448C.22499085 .640625 .22698975 .6516113 .3039856 .6516113H.32798768V.6826172C.29299928 .6796112 .21899414 .6796112 .18099976 .6796112 .14299011 .6796112 .067993167 .6796112 .032989503 .6826172V.6516113H.056991579C.13398743 .6516113 .13598633 .640625 .13598633 .6046448V.07797241C.13598633 .041992189 .13398743 .0309906 .056991579 .0309906H.032989503V0C.067993167 .0029907227 .14199829 .0029907227 .17999268 .0029907227 .21798706 .0029907227 .29299928 .0029907227 .32798768 0V.0309906H.3039856C.22698975 .0309906 .22499085 .041992189 .22499085 .07797241V.33984376H.5239868V.07797241C.5239868 .041992189 .5219879 .0309906 .44499208 .0309906H.42099V0C.45599366 .0029907227 .5299988 .0029907227 .56799319 .0029907227 .60598757 .0029907227 .68099978 .0029907227 .71598818 0Z"/>
<path id="font_1_118" d="M.5079956 .3996582V.43066407C.4850006 .4286499 .45599366 .42765809 .43299867 .42765809L.34599305 .43066407V.3996582C.3769989 .39866639 .3929901 .3816681 .3929901 .35668946 .3929901 .34669496 .3919983 .34469605 .3869934 .33270265L.28599549 .08685303 .1749878 .35568238C.17098999 .36567689 .16899109 .36967469 .16899109 .3736725 .16899109 .3996582 .20599365 .3996582 .22499085 .3996582V.43066407L.115997318 .42765809C.08898926 .42765809 .04899597 .4286499 .018997193 .43066407V.3996582C.066986087 .3996582 .085998538 .3996582 .099990848 .36468507L.25-.000091552738 .22499085-.059066774C.20298767-.11407471 .1749878-.18309021 .11099243-.18309021 .10598755-.18309021 .08299255-.18309021 .06399536-.16503906 .09498596-.16104126 .102996829-.13905335 .102996829-.123046878 .102996829-.0970459 .083999637-.08103943 .06098938-.08103943 .040985109-.08103943 .018997193-.09403992 .018997193-.124053958 .018997193-.16905213 .06098938-.20507813 .11099243-.20507813 .17399597-.20507813 .21499634-.14804077 .23899842-.091049198L.4149933 .33569337C.44099427 .39865113 .49198915 .3996582 .5079956 .3996582Z"/>
<path id="font_1_109" d="M.5349884 0V.0309906C.46499635 .0309906 .45700074 .037994386 .45700074 .08705139V.4423828L.30999757 .43066407V.3996582C.37998963 .3996582 .3880005 .39266969 .3880005 .34373475V.16601563C.3880005 .07910156 .33999635 .011245728 .2669983 .011245728 .18299866 .011245728 .1789856 .058135988 .1789856 .11009216V.4423828L.03199768 .43066407V.3996582C.10998535 .3996582 .10998535 .39666749 .10998535 .3078003V.15802002C.10998535 .080093387 .10998535-.0107421879 .2619934-.0107421879 .31799317-.0107421879 .3619995 .017242432 .3909912 .07910156V-.0107421879L.5349884 0Z"/>
<path id="font_5_1" d="M.42399598-1.1601563C.45498658-1.1601563 .45599366-1.1591644 .46598817-1.1401672L1.0130005 .002029419C1.019989 .015029907 1.019989 .017028809 1.019989 .02003479 1.019989 .031036377 1.0119934 .040039064 1 .040039064 .9869995 .040039064 .9830017 .031036377 .9779968 .02003479L.46199037-1.0561524 .24899292-.56007388 .10998535-.66708377 .125-.6830902 .19599915-.6290741 .42399598-1.1601563Z"/>
<path id="font_2_1" d="M.33099366-.2400055C.33099366-.23701477 .33099366-.23500061 .31399537-.21800232 .18899536-.0920105 .15699768 .09700012 .15699768 .25 .15699768 .42399598 .19499207 .59799197 .31799317 .72299197 .33099366 .73498538 .33099366 .7369995 .33099366 .73999026 .33099366 .746994 .32699586 .75 .32099916 .75 .31098939 .75 .22099304 .6819916 .1619873 .5549927 .11099243 .44499208 .09899902 .33399964 .09899902 .25 .09899902 .17199707 .10998535 .050994874 .16499329-.06201172 .22499085-.18501282 .31098939-.25 .32099916-.25 .32699586-.25 .33099366-.24700928 .33099366-.2400055Z"/>
<path id="font_2_2" d="M.2889862 .25C.2889862 .32798768 .27799989 .44898988 .22299195 .56199648 .16299439 .68499758 .07699585 .75 .066986087 .75 .06098938 .75 .056991579 .74598696 .056991579 .73999026 .056991579 .7369995 .056991579 .73498538 .07598877 .71699526 .17399597 .6179962 .23098755 .45899964 .23098755 .25 .23098755 .07899475 .19400025-.09700012 .069992069-.2230072 .056991579-.23500061 .056991579-.23701477 .056991579-.2400055 .056991579-.2460022 .06098938-.25 .066986087-.25 .07699585-.25 .16699219-.18200684 .22599793-.055007936 .2769928 .054992677 .2889862 .16600037 .2889862 .25Z"/>
<path id="font_3_2" d="M.48599244 .38136292C.48999024 .39537049 .48999024 .39736939 .48999024 .40437318 .48999024 .42237855 .47599793 .43138124 .46099855 .43138124 .45098878 .43138124 .43499757 .42536927 .42599488 .41036988 .42399598 .405365 .41600038 .37435914 .4119873 .35635377 .40499879 .33035279 .397995 .30334474 .3919983 .27633668L.34700013 .09628296C.34298707 .08126831 .2999878 .011245728 .23399353 .011245728 .18299866 .011245728 .17199707 .055267335 .17199707 .0922699 .17199707 .1382904 .18899536 .20030213 .22299195 .28833009 .23899842 .3293457 .24299622 .3403473 .24299622 .36035157 .24299622 .405365 .21099854 .4423828 .16099549 .4423828 .06599426 .4423828 .0289917 .29733277 .0289917 .28833009 .0289917 .27833558 .038986207 .27833558 .040985109 .27833558 .050994874 .27833558 .051986696 .28033448 .056991579 .29634095 .083999637 .3903656 .12399292 .42037965 .1579895 .42037965 .1659851 .42037965 .18299866 .42037965 .18299866 .3883667 .18299866 .36335755 .17298889 .3373413 .1659851 .31834413 .12599182 .21231079 .10798645 .1552887 .10798645 .10827637 .10798645 .019256592 .17098999-.0107421879 .22999573-.0107421879 .2689972-.0107421879 .30299378 .0062561037 .33099366 .03425598 .31799317-.017745972 .30599977-.06674194 .2659912-.11973572 .23999024-.15385437 .20199585-.18309021 .1559906-.18309021 .14199829-.18309021 .09700012-.18005371 .07998657-.14074707 .09599304-.14074707 .10899353-.14074707 .12298584-.1287384 .1329956-.11973572 .14299011-.10673523 .14299011-.08773804 .14299011-.056747438 .115997318-.052734376 .10598755-.052734376 .08299255-.052734376 .049987794-.068740848 .049987794-.11773682 .049987794-.16796875 .09399414-.20507813 .1559906-.20507813 .25898744-.20507813 .3619995-.11373901 .3899994-.00074768069L.48599244 .38136292Z"/>
</defs>
<path transform="matrix(1.00003,0,0,-1.00002,1.2955017,97.372737)" stroke-width=".79701" stroke-linecap="butt" stroke-miterlimit="10" stroke-linejoin="miter" fill="none" stroke="#000000" d="M0 0H147.43242"/>
<use data-text="A" xlink:href="#font_1_27" transform="matrix(9.962899,0,0,-9.962799,45.956846,108.22495)"/>
<use data-text="d" xlink:href="#font_1_47" transform="matrix(9.962899,0,0,-9.962799,53.160024,108.22495)"/>
<use data-text="j" xlink:href="#font_1_68" transform="matrix(9.962899,0,0,-9.962799,58.699399,108.22495)"/>
<use data-text="a" xlink:href="#font_1_28" transform="matrix(9.962899,0,0,-9.962799,61.748044,108.22495)"/>
<use data-text="c" xlink:href="#font_1_43" transform="matrix(9.962899,0,0,-9.962799,66.72949,108.22495)"/>
<use data-text="e" xlink:href="#font_1_50" transform="matrix(9.962899,0,0,-9.962799,71.153018,108.22495)"/>
<use data-text="n" xlink:href="#font_1_77" transform="matrix(9.962899,0,0,-9.962799,75.57655,108.22495)"/>
<use data-text="t" xlink:href="#font_1_105" transform="matrix(9.962899,0,0,-9.962799,80.83696,108.22495)"/>
<use data-text="=" xlink:href="#font_1_52" transform="matrix(9.962899,0,0,-9.962799,88.02022,108.22495)"/>
<use data-text="1" xlink:href="#font_2_4" transform="matrix(9.962899,0,0,-9.962799,99.08945,108.22495)"/>
<path transform="matrix(1.00003,0,0,-1.00002,1.2955017,97.372737)" stroke-width=".79701" stroke-linecap="butt" stroke-miterlimit="10" stroke-linejoin="miter" fill="none" stroke="#000000" d="M147.43242 0V92.14523"/>
<use data-text="O" xlink:href="#font_1_80" transform="matrix(9.962899,0,0,-9.962799,152.45105,54.38787)"/>
<use data-text="p" xlink:href="#font_1_84" transform="matrix(9.962899,0,0,-9.962799,160.20218,54.38787)"/>
<use data-text="p" xlink:href="#font_1_84" transform="matrix(9.962899,0,0,-9.962799,165.74155,54.38787)"/>
<use data-text="o" xlink:href="#font_1_81" transform="matrix(9.962899,0,0,-9.962799,171.55989,54.38787)"/>
<use data-text="s" xlink:href="#font_1_98" transform="matrix(9.962899,0,0,-9.962799,176.54135,54.38787)"/>
<use data-text="i" xlink:href="#font_1_66" transform="matrix(9.962899,0,0,-9.962799,180.46672,54.38787)"/>
<use data-text="t" xlink:href="#font_1_105" transform="matrix(9.962899,0,0,-9.962799,183.2364,54.38787)"/>
<use data-text="e" xlink:href="#font_1_50" transform="matrix(9.962899,0,0,-9.962799,187.11197,54.38787)"/>
<use data-text="=" xlink:href="#font_1_52" transform="matrix(9.962899,0,0,-9.962799,194.85315,54.38787)"/>
<use data-text="x" xlink:href="#font_3_1" transform="matrix(9.962899,0,0,-9.962799,205.92266,54.38787)"/>
<use data-text="2" xlink:href="#font_4_1" transform="matrix(6.9740097,0,0,-6.97394,211.61682,50.772798)"/>
<use data-text="+" xlink:href="#font_2_3" transform="matrix(9.962899,0,0,-9.962799,218.30004,54.38787)"/>
<use data-text="3" xlink:href="#font_2_5" transform="matrix(9.962899,0,0,-9.962799,228.25296,54.38787)"/>
<use data-text="x" xlink:href="#font_3_1" transform="matrix(9.962899,0,0,-9.962799,233.24448,54.38787)"/>
<path transform="matrix(1.00003,0,0,-1.00002,1.2955017,97.372737)" stroke-width=".79701" stroke-linecap="butt" stroke-miterlimit="10" stroke-linejoin="miter" fill="none" stroke="#000000" d="M147.43242 92.14523 0 0"/>
<use data-text="H" xlink:href="#font_1_62" transform="matrix(8.448439,-5.280084,-5.280137,-8.448354,13.03714,82.06418)"/>
<use data-text="y" xlink:href="#font_1_118" transform="matrix(8.448439,-5.280084,-5.280137,-8.448354,19.373475,78.10411)"/>
<use data-text="p" xlink:href="#font_1_84" transform="matrix(8.448439,-5.280084,-5.280137,-8.448354,23.834259,75.31622)"/>
<use data-text="o" xlink:href="#font_1_81" transform="matrix(8.448439,-5.280084,-5.280137,-8.448354,28.768143,72.23265)"/>
<use data-text="t" xlink:href="#font_1_105" transform="matrix(8.448439,-5.280084,-5.280137,-8.448354,32.992357,69.59261)"/>
<use data-text="e" xlink:href="#font_1_50" transform="matrix(8.448439,-5.280084,-5.280137,-8.448354,36.27881,67.538669)"/>
<use data-text="n" xlink:href="#font_1_77" transform="matrix(8.448439,-5.280084,-5.280137,-8.448354,40.029909,65.194309)"/>
<use data-text="u" xlink:href="#font_1_109" transform="matrix(8.448439,-5.280084,-5.280137,-8.448354,44.49913,62.40114)"/>
<use data-text="s" xlink:href="#font_1_98" transform="matrix(8.448439,-5.280084,-5.280137,-8.448354,49.196474,59.465414)"/>
<use data-text="e" xlink:href="#font_1_50" transform="matrix(8.448439,-5.280084,-5.280137,-8.448354,52.525148,57.38506)"/>
<use data-text="=" xlink:href="#font_1_52" transform="matrix(8.448439,-5.280084,-5.280137,-8.448354,59.081148,53.28771)"/>
<use data-text="&#x221a;" xlink:href="#font_5_1" transform="matrix(8.448439,-5.280084,-5.280137,-8.448354,63.95317,40.198019)"/>
<path transform="matrix(.8480154,-.5299906,-.5299959,-.84800699,-103.37564,52.96484)" stroke-width=".3985" stroke-linecap="butt" stroke-miterlimit="10" stroke-linejoin="miter" fill="none" stroke="#000000" d="M158.623-77.656H221.014"/>
<use data-text="1" xlink:href="#font_2_4" transform="matrix(8.448439,-5.280084,-5.280137,-8.448354,76.91646,42.14104)"/>
<use data-text="+" xlink:href="#font_2_3" transform="matrix(8.448439,-5.280084,-5.280137,-8.448354,83.01622,38.328824)"/>
<use data-text="(" xlink:href="#font_2_1" transform="matrix(8.448439,-5.280084,-5.280137,-8.448354,91.45621,33.05402)"/>
<use data-text="x" xlink:href="#font_3_1" transform="matrix(8.448439,-5.280084,-5.280137,-8.448354,94.75191,30.994282)"/>
<use data-text="2" xlink:href="#font_4_1" transform="matrix(5.9138906,-3.6960488,-3.6960858,-5.913831,98.05519,25.535954)"/>
<use data-text="+" xlink:href="#font_2_3" transform="matrix(8.448439,-5.280084,-5.280137,-8.448354,105.2478,24.43459)"/>
<use data-text="3" xlink:href="#font_2_5" transform="matrix(8.448439,-5.280084,-5.280137,-8.448354,113.68779,19.159787)"/>
<use data-text="x" xlink:href="#font_3_1" transform="matrix(8.448439,-5.280084,-5.280137,-8.448354,117.92055,16.514409)"/>
<use data-text=")" xlink:href="#font_2_2" transform="matrix(8.448439,-5.280084,-5.280137,-8.448354,122.749149,13.496639)"/>
<use data-text="2" xlink:href="#font_4_1" transform="matrix(5.9138906,-3.6960488,-3.6960858,-5.913831,124.50902,9.002903)"/>
<path transform="matrix(1.00003,0,0,-1.00002,1.2955017,97.372737)" stroke-width=".3985" stroke-linecap="butt" stroke-miterlimit="10" stroke-linejoin="miter" fill="none" stroke="#000000" d="M140.03366 0V7.37006H147.40375"/>
<path transform="matrix(1.00003,0,0,-1.00002,1.2955017,97.372737)" stroke-width=".3985" stroke-linecap="butt" stroke-miterlimit="10" stroke-linejoin="miter" fill="none" stroke="#000000" d="M22.11075 0C22.11075 4.14272 20.9461 8.20381 18.75108 11.71698"/>
<use data-text="y" xlink:href="#font_3_2" transform="matrix(9.962899,0,0,-9.962799,28.156311,91.17861)"/>
</svg>
