<svg xmlns="http://www.w3.org/2000/svg" xmlns:xlink="http://www.w3.org/1999/xlink" xmlns:inkscape="http://www.inkscape.org/namespaces/inkscape" version="1.1" width="181" height="185" viewBox="0 0 181 185">
<defs>
<path id="font_1_2" d="M.375 .6136017C.3809967 .63760378 .38398744 .6476135 .40299989 .65060427 .4119873 .6516113 .44400025 .6516113 .46398927 .6516113 .5349884 .6516113 .6459961 .6516113 .6459961 .5525818 .6459961 .51856997 .6299896 .44955445 .59098818 .41055299 .5649872 .38453675 .5119934 .35253907 .42199708 .35253907H.30999757L.375 .6136017M.5189972 .33953858C.6199951 .3615265 .7389984 .43154908 .7389984 .5325775 .7389984 .61860659 .6489868 .6826172 .5179901 .6826172H.23298645C.21299744 .6826172 .20399475 .6826172 .20399475 .6626129 .20399475 .6516113 .21299744 .6516113 .23199463 .6516113 .23399353 .6516113 .25299073 .6516113 .269989 .6496124 .28799439 .6476135 .29699708 .64660647 .29699708 .63360598 .29699708 .62960818 .29599 .6266022 .29299928 .6145935L.15899658 .07752991C.14898682 .038528444 .14698792 .030532837 .067993167 .030532837 .049987794 .030532837 .040985109 .030532837 .040985109 .010528564 .040985109-.00047302247 .052993776-.00047302247 .054992677-.00047302247 .08299255-.00047302247 .15299988 .002532959 .18099976 .002532959 .20899964 .002532959 .27999879-.00047302247 .30799867-.00047302247 .31599427-.00047302247 .32798768-.00047302247 .32798768 .01953125 .32798768 .030532837 .31900025 .030532837 .2999878 .030532837 .2630005 .030532837 .23498535 .030532837 .23498535 .048538209 .23498535 .054534913 .23699951 .059524537 .23799134 .0655365L.3039856 .3305359H.4229889C.5139923 .3305359 .5319977 .27453614 .5319977 .23953247 .5319977 .22453308 .5239868 .19352722 .5179901 .17053223 .5109863 .14253235 .5019989 .105529788 .5019989 .08552551 .5019989-.022460938 .621994-.022460938 .6349945-.022460938 .7200012-.022460938 .7549896 .07853699 .7549896 .0925293 .7549896 .104537967 .74398806 .104537967 .7429962 .104537967 .73399356 .104537967 .7319946 .09753418 .7299957 .090530399 .7049866 .016525269 .6619873-.00047302247 .6389923-.00047302247 .60598757-.00047302247 .598999 .021530152 .598999 .060531618 .598999 .091537479 .6049957 .14253235 .60899356 .17453003 .61099246 .1885376 .61299136 .20753479 .61299136 .2215271 .61299136 .2985382 .54599 .3295288 .5189972 .33953858Z"/>
<path id="font_2_5" d="M.68699648 .32714845C.70199587 .32714845 .72099307 .32714845 .72099307 .34713746 .72099307 .36714173 .70199587 .36714173 .6879883 .36714173H.08898926C.07499695 .36714173 .055999757 .36714173 .055999757 .34713746 .055999757 .32714845 .07499695 .32714845 .08999634 .32714845H.68699648M.6879883 .13284302C.70199587 .13284302 .72099307 .13284302 .72099307 .15284729 .72099307 .17285156 .70199587 .17285156 .68699648 .17285156H.08999634C.07499695 .17285156 .055999757 .17285156 .055999757 .15284729 .055999757 .13284302 .07499695 .13284302 .08898926 .13284302H.6879883Z"/>
<path id="font_2_3" d="M.2899933 .35191346C.37199403 .37893678 .42999269 .4490509 .42999269 .52809146 .42999269 .6100464 .34199525 .6660156 .24598694 .6660156 .14498902 .6660156 .068984989 .60606387 .068984989 .53009036 .068984989 .49710084 .09098816 .47808839 .11999512 .47808839 .15098572 .47808839 .17098999 .50009158 .17098999 .5290985 .17098999 .57910159 .12399292 .57910159 .10899353 .57910159 .13999939 .62802127 .20599365 .64100649 .24198914 .64100649 .2829895 .64100649 .33799745 .6190338 .33799745 .5290985 .33799745 .51708987 .33599855 .45906068 .30999757 .4149933 .27999879 .36691285 .24598694 .36390687 .22099304 .36291505 .21299744 .36190797 .18899536 .35990907 .18199158 .35990907 .17399597 .35890199 .16699219 .35791017 .16699219 .3479004 .16699219 .33691407 .17399597 .33691407 .19099427 .33691407H.23498535C.31698609 .33691407 .35398866 .2686615 .35398866 .17037964 .35398866 .034469606 .2849884 .0055389406 .24099732 .0055389406 .19799805 .0055389406 .12298584 .022491456 .08799744 .08137512 .12298584 .07637024 .1539917 .09837341 .1539917 .1363678 .1539917 .17237854 .1269989 .19238281 .09799194 .19238281 .07398987 .19238281 .041992189 .17837525 .041992189 .1343689 .041992189 .043441774 .1349945-.022460938 .24398804-.022460938 .3659973-.022460938 .45700074 .06838989 .45700074 .17037964 .45700074 .252594 .3939972 .33088685 .2899933 .35191346Z"/>
<path id="font_1_1" d="M.7630005 .60565188C.7719879 .6416168 .7739868 .6516113 .8470001 .6516113 .8730011 .6516113 .8809967 .6516113 .8809967 .6716156 .8809967 .6826172 .8699951 .6826172 .86698916 .6826172 .83898928 .6826172 .7669983 .6796112 .7389984 .6796112 .70999148 .6796112 .6389923 .6826172 .6100006 .6826172 .60198977 .6826172 .59098818 .6826172 .59098818 .6626129 .59098818 .6516113 .59999087 .6516113 .61898806 .6516113 .62098696 .6516113 .6399994 .6516113 .6569977 .6496124 .6749878 .6476135 .6839905 .6466217 .6839905 .6336212 .6839905 .6296234 .68299868 .6276245 .6799927 .6146393L.6199951 .37083436H.31498719L.37399293 .60565188C.3829956 .6416168 .38598634 .6516113 .45799256 .6516113 .48399354 .6516113 .49198915 .6516113 .49198915 .6716156 .49198915 .6826172 .48098756 .6826172 .47799684 .6826172 .44999696 .6826172 .37799073 .6796112 .34999085 .6796112 .32099916 .6796112 .25 .6826172 .22099304 .6826172 .21299744 .6826172 .20199585 .6826172 .20199585 .6626129 .20199585 .6516113 .21099854 .6516113 .22999573 .6516113 .23199463 .6516113 .25099183 .6516113 .2679901 .6496124 .28599549 .6476135 .29499818 .6466217 .29499818 .6336212 .29499818 .6296234 .2939911 .6266327 .29100038 .6146393L.15699768 .07797241C.14698792 .038986207 .14498902 .0309906 .06599426 .0309906 .04798889 .0309906 .038986207 .0309906 .038986207 .010986328 .038986207 0 .050994874 0 .052993776 0 .08099365 0 .1519928 .0029907227 .17999268 .0029907227 .20098877 .0029907227 .22299195 .0019989014 .24398804 .0019989014 .2659912 .0019989014 .28799439 0 .30899049 0 .31698609 0 .32899476 0 .32899476 .019989014 .32899476 .0309906 .31999208 .0309906 .30099488 .0309906 .2639923 .0309906 .23599243 .0309906 .23599243 .048980714 .23599243 .054977418 .23799134 .0599823 .23899842 .065979007L.30699159 .33984376H.6119995C.56999209 .17391968 .5469971 .07896423 .54299929 .0639801 .5329895 .03199768 .5139923 .0309906 .45199586 .0309906 .43699647 .0309906 .42799378 .0309906 .42799378 .010986328 .42799378 0 .43998719 0 .44198609 0 .46998597 0 .54100039 .0029907227 .56900027 .0029907227 .58999636 .0029907227 .6119995 .0019989014 .6329956 .0019989014 .6549988 .0019989014 .6769867 0 .69799807 0 .70599368 0 .71798709 0 .71798709 .019989014 .71798709 .0309906 .70899966 .0309906 .6899872 .0309906 .6529999 .0309906 .625 .0309906 .625 .048980714 .625 .054977418 .6269989 .0599823 .6279907 .065979007L.7630005 .60565188Z"/>
<path id="font_2_4" d="M.13198853 .327713V.35173036C.13198853 .6047821 .2559967 .64100649 .30699159 .64100649 .33099366 .64100649 .37298585 .634964 .394989 .6007538 .37998963 .6007538 .33999635 .6007538 .33999635 .5557556 .33999635 .524765 .3639984 .5097656 .38598634 .5097656 .4019928 .5097656 .43199159 .51875308 .43199159 .5577545 .43199159 .6178589 .3880005 .6660156 .30499269 .6660156 .1769867 .6660156 .041992189 .5367584 .041992189 .31570436 .041992189 .048553468 .1579895-.022460938 .25099183-.022460938 .3619995-.022460938 .45700074 .07156372 .45700074 .2036438 .45700074 .33070375 .36799623 .4267578 .25698854 .4267578 .18899536 .4267578 .1519928 .37573243 .13198853 .327713M.25099183 .0055389406C.18798828 .0055389406 .1579895 .06556702 .1519928 .080566409 .13398743 .127594 .13398743 .2076416 .13398743 .22564698 .13398743 .30369569 .1659851 .40374757 .2559967 .40374757 .27198792 .40374757 .31799317 .40374757 .34899903 .34172059 .36698915 .30470277 .36698915 .2536621 .36698915 .20463562 .36698915 .15661621 .36698915 .10658264 .34999085 .0705719 .31999208 .010528564 .27398683 .0055389406 .25099183 .0055389406Z"/>
<path id="font_1_4" d="M.08799744 .059265138C.084991458 .044265748 .07899475 .021255494 .07899475 .01625061 .07899475-.0017547608 .09298706-.0107421879 .10798645-.0107421879 .11999512-.0107421879 .13798523-.002746582 .14498902 .01725769 .14698792 .021255494 .18099976 .15730286 .18499756 .17530823 .19299317 .20831299 .21099854 .27833558 .21699524 .30534364 .22099304 .31835938 .24899292 .36535646 .272995 .38734437 .2809906 .39434815 .30999757 .42037965 .35299684 .42037965 .3789978 .42037965 .3939972 .4083557 .394989 .4083557 .36499024 .40335084 .34298707 .37934876 .34298707 .35334779 .34298707 .33735658 .35398866 .31835938 .3809967 .31835938 .4079895 .31835938 .43598939 .34135438 .43598939 .37734986 .43598939 .41235353 .4039917 .4423828 .35299684 .4423828 .28799439 .4423828 .24398804 .39335633 .22499085 .36535646 .21699524 .4103546 .18099976 .4423828 .13398743 .4423828 .08799744 .4423828 .068984989 .40335084 .05999756 .38534547 .041992189 .35134889 .0289917 .29133607 .0289917 .28834535 .0289917 .27833558 .038986207 .27833558 .040985109 .27833558 .050994874 .27833558 .051986696 .27934266 .057998659 .30134584 .07499695 .37234498 .09498596 .42037965 .1309967 .42037965 .147995 .42037965 .1619873 .41235353 .1619873 .37435914 .1619873 .35334779 .15899658 .3423462 .1459961 .29034425L.08799744 .059265138Z"/>
<path id="font_1_3" d="M.2869873 .68333438C.2869873 .6843262 .2869873 .69433596 .27398683 .69433596 .25099183 .69433596 .17799378 .6863251 .1519928 .6843262 .14399719 .68333438 .1329956 .6823273 .1329956 .6643219 .1329956 .6523285 .14199829 .6523285 .15699768 .6523285 .20498657 .6523285 .20698548 .6453247 .20698548 .6353302L.20399475 .6153412 .05899048 .039260866C.054992677 .025253296 .054992677 .023254395 .054992677 .01725769 .054992677-.0057525637 .07499695-.0107421879 .083999637-.0107421879 .099990848-.0107421879 .115997318 .0012512207 .12098694 .015258789L.13999939 .091278079 .1619873 .18130493C.16799927 .2033081 .17399597 .22531128 .1789856 .24832154 .18099976 .25431825 .18899536 .28733827 .18998719 .29333497 .19299317 .30233766 .22399903 .35835267 .2579956 .38536073 .27999879 .4013672 .31098939 .42037965 .35398866 .42037965 .39698792 .42037965 .4079895 .3863678 .4079895 .35035707 .4079895 .29634095 .36999513 .18730164 .34599305 .12628174 .33799745 .103271488 .33299256 .091278079 .33299256 .0712738 .33299256 .024261475 .36799623-.0107421879 .4149933-.0107421879 .5089874-.0107421879 .54599 .13528443 .54599 .14329529 .54599 .1532898 .5369873 .1532898 .5339966 .1532898 .5239868 .1532898 .5239868 .15029907 .5189972 .13528443 .5039978 .08227539 .47200013 .011245728 .4169922 .011245728 .3999939 .011245728 .3929901 .021255494 .3929901 .044265748 .3929901 .0692749 .4019928 .09327698 .41099549 .11528015 .4269867 .15829468 .47200013 .2773285 .47200013 .3353424 .47200013 .4003601 .43199159 .4423828 .35699464 .4423828 .2939911 .4423828 .24598694 .41137696 .20899964 .36535646L.2869873 .68333438Z"/>
<path id="font_3_2" d="M.57099917 .66430667C.57199099 .66630557 .57499697 .67930606 .57499697 .68029788 .57499697 .68530276 .57099917 .6943054 .5589905 .6943054 .5389862 .6943054 .45599366 .6863098 .43099977 .6843109 .4229889 .68330386 .40899659 .682312 .40899659 .66130068 .40899659 .64730837 .4229889 .64730837 .43499757 .64730837 .48298646 .64730837 .48298646 .64030459 .48298646 .63230898 .48298646 .62532046 .48098756 .61932376 .47898866 .61032107L.42199708 .38238526C.40098573 .41540528 .36698915 .44140626 .31900025 .44140626 .19099427 .44140626 .06098938 .300354 .06098938 .15628052 .06098938 .059249879 .12599182-.009765625 .21199036-.009765625 .2659912-.009765625 .31399537 .021224976 .35398866 .0602417 .37298585 .00022888184 .43099977-.009765625 .45700074-.009765625 .49299623-.009765625 .5179901 .01222229 .5359955 .04324341 .55799868 .08226013 .57099917 .13928223 .57099917 .14328003 .57099917 .15628052 .55799868 .15628052 .5549927 .15628052 .54100039 .15628052 .5399933 .15228272 .5329895 .12527466 .5209961 .07725525 .5019989 .018234253 .45999146 .018234253 .43399049 .018234253 .4269867 .040237428 .4269867 .06724548 .4269867 .086257938 .42900086 .09526062 .43199159 .10826111L.57099917 .66430667M.35798646 .12527466C.35099793 .09725952 .32899476 .07725525 .30699159 .058242799 .2979889 .050247194 .2579956 .018234253 .21499634 .018234253 .17799378 .018234253 .14199829 .04423523 .14199829 .11526489 .14199829 .16828919 .17098999 .27833558 .19400025 .31835938 .23999024 .39839173 .29100038 .4133911 .31900025 .4133911 .3889923 .4133911 .4079895 .33737184 .4079895 .32635499 .4079895 .32235719 .4059906 .3153534 .40499879 .3123474L.35798646 .12527466Z"/>
<path id="font_3_1" d="M.71499636 .5637207C.7519989 .61764529 .7839966 .64260867 .83799746 .64660647 .84999087 .6476135 .86099246 .64860537 .86099246 .6686096 .86099246 .6716156 .85899356 .6826172 .8470001 .6826172 .82299807 .6826172 .7919922 .6786041 .7669983 .6786041 .7350006 .6786041 .69299319 .6826172 .6629944 .6826172 .6539917 .6826172 .6429901 .6796112 .6429901 .660614 .6429901 .6476135 .6569977 .64660647 .6609955 .64660647 .69299319 .64460757 .70199587 .6326294 .70199587 .61764529 .70199587 .6036682 .69499209 .5936737 .6839905 .57769778L.35598756 .09434509 .2649994 .60466006C.2630005 .61364749 .2630005 .61564639 .2630005 .61964419 .2630005 .64660647 .31900025 .64660647 .32598878 .64660647 .34298707 .64660647 .35598756 .64660647 .35598756 .6686096 .35598756 .6696167 .35499574 .6826172 .33898927 .6826172 .30999757 .6826172 .23899842 .6786041 .20999146 .6786041 .18499756 .6786041 .12399292 .6826172 .09899902 .6826172 .08999634 .6826172 .07899475 .6796112 .07899475 .660614 .07899475 .64660647 .09298706 .64660647 .10398865 .64660647 .1599884 .64660647 .16099549 .64060977 .1659851 .61465457L.2749939 .007446289C.2789917-.013534546 .27999879-.01953125 .29899598-.01953125 .31799317-.01953125 .32299806-.012542725 .33299256 .002456665L.71499636 .5637207Z"/>
<path id="font_4_1" d="M.5149994 .38616944C.49699403 .3811493 .46899415 .3601532 .46899415 .32614137 .46899415 .30015565 .48799134 .28515626 .5130005 .28515626 .5369873 .28515626 .57499697 .30415345 .57499697 .35414125 .57499697 .42938233 .47799684 .4423828 .4229889 .4423828 .2539978 .4423828 .10699463 .30415345 .10699463 .17118836 .10699463 .084228519 .17098999-.0107421879 .32199098-.0107421879 .34098817-.0107421879 .42099-.0107421879 .4889984 .01524353 .55599978 .041244508 .59599307 .08721924 .59599307 .098220828 .59599307 .10621643 .58299258 .12121582 .57398989 .12121582 .56900027 .12121582 .56799319 .12020874 .5519867 .10421753 .5069885 .053237916 .4229889 .023254395 .32299806 .023254395 .23899842 .023254395 .19898987 .070236209 .19898987 .13920594 .19898987 .24116516 .2649994 .40837098 .4229889 .40837098 .43399049 .40837098 .48399354 .40837098 .5149994 .38616944Z"/>
<path id="font_3_3" d="M.24598694 .39465333H.34799195C.36698915 .39465333 .37998963 .39465333 .37998963 .4166565 .37998963 .43066407 .36698915 .43066407 .34999085 .43066407H.25498963L.2919922 .57850649C.29299928 .58351138 .29499818 .588501 .29499818 .5924988 .29499818 .6104889 .2809906 .6244812 .26098634 .6244812 .23599243 .6244812 .22099304 .6074829 .21398926 .58151248 .20698548 .5565338 .21998596 .6044922 .17599488 .43066407H.07398987C.054992677 .43066407 .041992189 .43066407 .041992189 .4086609 .041992189 .39465333 .053985597 .39465333 .07199097 .39465333H.16699219L.10798645 .15901184C.101989749 .13404846 .09298706 .098098758 .09298706 .085128787 .09298706 .0262146 .14299011-.009765625 .19999695-.009765625 .31098939-.009765625 .37399293 .13005066 .37399293 .14303589 .37399293 .15602112 .36099244 .15602112 .35798646 .15602112 .34599305 .15602112 .34498597 .15402222 .33699037 .13703919 .30899049 .074142459 .2579956 .018234253 .20298767 .018234253 .18199158 .018234253 .16799927 .031204224 .16799927 .06715393 .16799927 .07713318 .17199707 .098098758 .17399597 .10809326L.24598694 .39465333Z"/>
<path id="font_5_1" d="M.6589966 .23046875C.6759949 .23046875 .69400027 .23046875 .69400027 .25045777 .69400027 .27046205 .6759949 .27046205 .6589966 .27046205H.117996219C.100997928 .27046205 .08299255 .27046205 .08299255 .25045777 .08299255 .23046875 .100997928 .23046875 .117996219 .23046875H.6589966Z"/>
<path id="font_2_2" d="M.2939911 .64004519C.2939911 .66400149 .2939911 .6660156 .2709961 .6660156 .20899964 .60227969 .12098694 .60227969 .08898926 .60227969V.57128909C.10899353 .57128909 .16799927 .57128909 .21998596 .5972748V.07902527C.21998596 .042999269 .21699524 .0309906 .1269989 .0309906H.09498596V0C.12998963 .0029907227 .21699524 .0029907227 .25698854 .0029907227 .29699708 .0029907227 .38398744 .0029907227 .4189911 0V.0309906H.3869934C.29699708 .0309906 .2939911 .041992189 .2939911 .07902527V.64004519Z"/>
<path id="font_2_1" d="M.45999146 .31976319C.45999146 .39982606 .45498658 .47988893 .41999818 .5539398 .37399293 .65000918 .2919922 .6660156 .25 .6660156 .18998719 .6660156 .116989139 .64001467 .07598877 .54693606 .04399109 .47789 .038986207 .39982606 .038986207 .31976319 .038986207 .24472046 .042999269 .15464783 .083999637 .07859802 .1269989-.0024719239 .19999695-.022460938 .24899292-.022460938 .30299378-.022460938 .3789978-.0014648438 .4229889 .09359741 .45498658 .16265869 .45999146 .2407074 .45999146 .31976319M.24899292-.00047302247C.20999146-.00047302247 .15098572 .024551392 .1329956 .12062073 .12199402 .18066406 .12199402 .2727356 .12199402 .3317871 .12199402 .39582826 .12199402 .46188355 .12998963 .5159149 .14898682 .63500979 .22399903 .64401248 .24899292 .64401248 .28199769 .64401248 .34799195 .6259918 .36698915 .52693179 .3769989 .47088624 .3769989 .39482118 .3769989 .3317871 .3769989 .25672914 .3769989 .18867493 .3659973 .12461853 .35099793 .029556275 .2939911-.00047302247 .24899292-.00047302247Z"/>
</defs>
<path transform="matrix(1.00005,0,0,-1.00005,70.33055,154.1211)" stroke-width=".79701" stroke-linecap="butt" stroke-miterlimit="10" stroke-linejoin="miter" fill="none" stroke="#000000" d="M-68.0326 136.0652 0 0 68.0326 136.0652Z"/>
<path transform="matrix(1.00005,0,0,-1.00005,70.33055,154.1211)" d="M-56.69382 113.38766 0 0 56.69382 113.38766Z" fill="#e6e6ff"/>
<path transform="matrix(1.00005,0,0,-1.00005,70.33055,154.1211)" stroke-width=".79701" stroke-linecap="butt" stroke-miterlimit="10" stroke-linejoin="miter" fill="none" stroke="#0000ff" d="M-56.69382 113.38766H56.69382"/>
<path transform="matrix(1.00005,0,0,-1.00005,70.33055,154.1211)" stroke-width=".3985" stroke-linecap="butt" stroke-dasharray="2.98883,2.98883" stroke-miterlimit="10" stroke-linejoin="miter" fill="none" stroke="#7f807f" d="M0 0V147.40396"/>
<path transform="matrix(1.00005,0,0,-1.00005,70.33055,154.1211)" stroke-width=".3985" stroke-linecap="butt" stroke-miterlimit="10" stroke-linejoin="miter" fill="none" stroke="#7f807f" d="M3.58653 142.86852H64.44604"/>
<path transform="matrix(-1.00005,-0,0,1.00005,73.91726,11.245438)" d="M3.58653 0C2.52383 .19925 .797 .797-.3985 1.49438V-1.49438C.797-.797 2.52383-.19925 3.58653 0" fill="#7f807f"/>
<path transform="matrix(1.00005,0,0,-1.00005,134.77982,11.245438)" d="M3.58653 0C2.52383 .19925 .797 .797-.3985 1.49438V-1.49438C.797-.797 2.52383-.19925 3.58653 0" fill="#7f807f"/>
<use data-text="R" xlink:href="#font_1_2" transform="matrix(9.963098,0,0,-9.963098,91.39461,7.7257845)"/>
<use data-text="=" xlink:href="#font_2_5" transform="matrix(9.963098,0,0,-9.963098,101.80412,7.7257845)"/>
<use data-text="3" xlink:href="#font_2_3" transform="matrix(9.963098,0,0,-9.963098,112.30524,7.7257845)"/>
<path transform="matrix(1.00005,0,0,-1.00005,70.33055,154.1211)" stroke-width=".3985" stroke-linecap="butt" stroke-miterlimit="10" stroke-linejoin="miter" fill="none" stroke="#7f807f" d="M79.37135 3.58653V132.47866"/>
<path transform="matrix(0,1.00005,1.00005,0,149.70587,150.53438)" d="M3.58653 0C2.52383 .19925 .797 .797-.3985 1.49438V-1.49438C.797-.797 2.52383-.19925 3.58653 0" fill="#7f807f"/>
<path transform="matrix(0,-1.00005,-1.00005,-0,149.70587,21.635819)" d="M3.58653 0C2.52383 .19925 .797 .797-.3985 1.49438V-1.49438C.797-.797 2.52383-.19925 3.58653 0" fill="#7f807f"/>
<use data-text="H" xlink:href="#font_1_1" transform="matrix(9.963098,0,0,-9.963098,153.2257,89.48887)"/>
<use data-text="=" xlink:href="#font_2_5" transform="matrix(9.963098,0,0,-9.963098,165.08429,89.48887)"/>
<use data-text="6" xlink:href="#font_2_4" transform="matrix(9.963098,0,0,-9.963098,175.5854,89.48887)"/>
<path transform="matrix(1.00005,0,0,-1.00005,70.33055,154.1211)" stroke-width=".79701" stroke-linecap="butt" stroke-miterlimit="10" stroke-linejoin="miter" fill="none" stroke="#0000b3" d="M0 113.38766H56.69382"/>
<use data-text="r" xlink:href="#font_1_4" transform="matrix(9.963098,0,0,-9.963098,96.29285,37.00824)" fill="#0000b3"/>
<path transform="matrix(1.00005,0,0,-1.00005,70.33055,154.1211)" stroke-width=".79701" stroke-linecap="butt" stroke-miterlimit="10" stroke-linejoin="miter" fill="none" stroke="#0000b3" d="M0 0V113.38766"/>
<use data-text="h" xlink:href="#font_1_3" transform="matrix(9.963098,0,0,-9.963098,60.87108,100.88344)" fill="#0000b3"/>
<path transform="matrix(1.00005,0,0,-1.00005,70.33055,154.1211)" stroke-width="1.59404" stroke-linecap="butt" stroke-miterlimit="10" stroke-linejoin="miter" fill="none" stroke="#ff0000" d="M0 0V-15.86302"/>
<path transform="matrix(0,1.00005,1.00005,0,70.33055,169.98491)" d="M6.81448 0C4.79533 .37857 1.51433 1.51433-.75716 2.83936V-2.83936C1.51433-1.51433 4.79533-.37857 6.81448 0" fill="#ff0000"/>
<use data-text="d" xlink:href="#font_3_2" transform="matrix(6.9741489,0,0,-6.9741489,75.64382,175.46216)" fill="#ff0000"/>
<use data-text="V" xlink:href="#font_3_1" transform="matrix(6.9741489,0,0,-6.9741489,79.786479,175.46216)" fill="#ff0000"/>
<use data-text="c" xlink:href="#font_4_1" transform="matrix(4.981549,0,0,-4.981549,84.49627,176.45822)" fill="#ff0000"/>
<path transform="matrix(1.00005,0,0,-1.00005,-76.885799,37.416269)" stroke-width=".3985" stroke-linecap="butt" stroke-miterlimit="10" stroke-linejoin="miter" fill="none" stroke="#ff0000" d="M152.522-139.633H165.107"/>
<use data-text="d" xlink:href="#font_3_2" transform="matrix(6.9741489,0,0,-6.9741489,78.35795,182.98255)" fill="#ff0000"/>
<use data-text="t" xlink:href="#font_3_3" transform="matrix(6.9741489,0,0,-6.9741489,82.5006,182.98255)" fill="#ff0000"/>
<use data-text="=" xlink:href="#font_2_5" transform="matrix(9.963098,0,0,-9.963098,92.192638,179.54636)" fill="#ff0000"/>
<use data-text="&#x2212;" xlink:href="#font_5_1" transform="matrix(9.963098,0,0,-9.963098,102.709178,179.54636)" fill="#ff0000"/>
<use data-text="1" xlink:href="#font_2_2" transform="matrix(9.963098,0,0,-9.963098,110.45855,179.54636)" fill="#ff0000"/>
<use data-text="0" xlink:href="#font_2_1" transform="matrix(9.963098,0,0,-9.963098,115.4401,179.54636)" fill="#ff0000"/>
<path transform="matrix(1.00005,0,0,-1.00005,70.33055,154.1211)" stroke-width=".3985" stroke-linecap="butt" stroke-miterlimit="10" stroke-linejoin="miter" fill="none" stroke="#000000" d="M0 113.38766H4.53543V117.9231"/>
</svg>
